<svg width="20" height="29" viewBox="0 0 28 29" fill="none" xmlns="http://www.w3.org/2000/svg">
<path d="M2.99922 23.9221C4.59722 26 7.57136 26 13.5197 26H14.4804C20.4287 26 23.4028 26 25.0008 23.9221M2.99922 23.9221C1.40121 21.8443 1.94931 18.6897 3.04552 12.3807C3.82509 7.894 4.21487 5.65065 5.69468 4.32532M25.0008 23.9221C26.5987 21.8443 26.0507 18.6897 24.9546 12.3807C24.1749 7.894 23.7851 5.65065 22.3053 4.32532M22.3053 4.32532C20.8255 3 18.7105 3 14.4804 3H13.5197C9.28955 3 7.17449 3 5.69468 4.32532" stroke="#2B2B2B" stroke-width="1.8"/>
<path d="M10.2305 8.75C10.7791 10.425 12.2594 11.625 13.9993 11.625C15.7393 11.625 17.2197 10.425 17.7682 8.75" stroke="#2B2B2B" stroke-width="1.8" stroke-linecap="round"/>
</svg>
