<svg width="20" height="29" viewBox="0 0 28 29" fill="none" xmlns="http://www.w3.org/2000/svg">
<path fill-rule="evenodd" clip-rule="evenodd" d="M7.76129 3.03846C6.81706 3.03846 6.05162 3.79901 6.05162 4.73718V23.7628C6.05162 24.7009 6.81706 25.4615 7.76129 25.4615H21.4387C22.3829 25.4615 23.1484 24.7009 23.1484 23.7628V10.4611C23.1484 10.0189 22.9748 9.5941 22.6645 9.27701L17.0637 3.55304C16.7417 3.22407 16.2996 3.03846 15.8378 3.03846H7.76129ZM4 4.73718C4 2.6732 5.68398 1 7.76129 1H15.8378C16.8538 1 17.8265 1.40833 18.5347 2.13207L24.1355 7.85604C24.8181 8.55363 25.2 9.48821 25.2 10.4611V23.7628C25.2 25.8268 23.5161 27.5 21.4387 27.5H7.76129C5.68398 27.5 4 25.8268 4 23.7628V4.73718Z" fill="#2B2B2B"/>
<path fill-rule="evenodd" clip-rule="evenodd" d="M9.46875 18.3278C9.46875 18.8908 9.92802 19.3471 10.4946 19.3471H18.701C19.2675 19.3471 19.7269 18.8908 19.7269 18.3278C19.7269 17.7649 19.2675 17.3086 18.701 17.3086H10.4946C9.92802 17.3086 9.46875 17.7649 9.46875 18.3278Z" fill="#2B2B2B"/>
<path fill-rule="evenodd" clip-rule="evenodd" d="M9.46875 12.8904C9.46875 13.4533 9.92802 13.9096 10.4946 13.9096H14.5978C15.1644 13.9096 15.6236 13.4533 15.6236 12.8904C15.6236 12.3274 15.1644 11.8711 14.5978 11.8711H10.4946C9.92802 11.8711 9.46875 12.3274 9.46875 12.8904Z" fill="#2B2B2B"/>
</svg>
