<svg width="20" height="34" viewBox="0 0 28 34" fill="none" xmlns="http://www.w3.org/2000/svg">
<path d="M10.7878 14.8206C10.9147 14.313 11.311 13.9166 11.8186 13.7897L16.7173 12.5651C17.7547 12.3057 18.6945 13.2455 18.4351 14.2831L17.2105 19.1816C17.0836 19.6892 16.6872 20.0856 16.1798 20.2124L11.2811 21.4371C10.2435 21.6965 9.30373 20.7567 9.56312 19.7191L10.7878 14.8206Z" stroke="#2B2B2B" stroke-width="1.8" stroke-linecap="round" stroke-linejoin="round"/>
<path d="M14.0026 4.95898C4.79427 4.95898 1.96094 7.79232 1.96094 17.0007C1.96094 26.209 4.79427 29.0423 14.0026 29.0423C23.2109 29.0423 26.0443 26.209 26.0443 17.0007C26.0443 7.79232 23.2109 4.95898 14.0026 4.95898Z" stroke="#2B2B2B" stroke-width="1.8" stroke-linecap="round" stroke-linejoin="round"/>
</svg>
