<svg width="20" height="29" viewBox="0 0 28 29" fill="none" xmlns="http://www.w3.org/2000/svg">
<path d="M7.96956 3.01116C6.02748 3.20801 4.48883 4.19225 3.38645 5.93434C1.76805 8.49827 1.55226 11.884 2.81414 15.073C4.33872 18.941 7.72562 22.435 12.9279 25.5009C13.7583 25.993 13.9224 26.0521 14.1851 25.9684C14.5276 25.8602 16.2257 24.8267 17.4688 23.9655C24.0738 19.3987 27.0901 13.6064 25.6453 8.27682C25.4107 7.41069 25.087 6.68236 24.5898 5.90481C23.9659 4.91566 23.0136 4.04461 22.0473 3.56726C21.2216 3.16372 20.5368 3.01116 19.5094 3.01116C17.5861 3.01608 15.8457 3.78871 14.3399 5.30935L13.9975 5.65383L13.6597 5.30935C12.4776 4.11843 11.1407 3.38025 9.64893 3.10467C9.22674 3.02593 8.30731 2.97672 7.96956 3.01116ZM9.43784 4.78279C10.8311 5.04361 12.2665 5.99339 13.1578 7.24337C13.5096 7.73549 13.6738 7.8536 13.9975 7.8536C14.3024 7.8536 14.476 7.73549 14.7856 7.32211C15.9865 5.70797 17.3938 4.86645 19.1388 4.70405C21.0809 4.52688 22.6946 5.54065 23.6563 7.55341C24.3412 8.97562 24.5569 10.703 24.2708 12.4352C23.6938 15.9637 20.9683 19.5266 16.4603 22.6417C15.6816 23.183 14.5933 23.8769 14.1945 24.0885L13.9975 24.1919L13.8005 24.0885C13.3877 23.8671 12.1023 23.0453 11.3846 22.5384C6.87655 19.3691 4.26366 15.8849 3.69136 12.3023C3.58347 11.5986 3.58347 10.2847 3.69605 9.62522C3.9822 7.93233 4.79375 6.39693 5.82108 5.5997C6.89532 4.76802 8.01647 4.51212 9.43784 4.78279Z" fill="#2B2B2B" stroke="#2B2B2B" stroke-width="0.6"/>
</svg>
