<svg width="20" height="29" viewBox="0 0 28 29" fill="none" xmlns="http://www.w3.org/2000/svg">
<path d="M11.0211 18.606C10.6329 18.3079 10.0849 18.3923 9.79711 18.7944C9.50934 19.1965 9.59078 19.7641 9.97901 20.0621C11.1135 20.933 12.5009 21.4486 14.0001 21.4486C15.4992 21.4486 16.8866 20.933 18.0211 20.0621C18.4094 19.7641 18.4908 19.1965 18.203 18.7944C17.9153 18.3923 17.3673 18.3079 16.979 18.606C16.1292 19.2583 15.1036 19.6361 14.0001 19.6361C12.8965 19.6361 11.8709 19.2583 11.0211 18.606Z" fill="#2B2B2B"/>
<path fill-rule="evenodd" clip-rule="evenodd" d="M13.9987 1.50977C13.1726 1.50977 12.4219 1.75484 11.6077 2.16497C10.8205 2.56144 9.91119 3.14596 8.77537 3.87607L6.36436 5.42585C5.28964 6.11667 4.42904 6.66983 3.76575 7.19595C3.07887 7.74077 2.55131 8.29563 2.17023 9.01669C1.78994 9.73624 1.6187 10.5019 1.53659 11.4069C1.45702 12.2839 1.45702 13.3564 1.45703 14.7014V16.6501C1.45702 18.9505 1.45701 20.7665 1.63518 22.1863C1.81796 23.6428 2.20202 24.8186 3.06978 25.7482C3.94154 26.6823 5.0509 27.0995 6.42424 27.2973C7.75527 27.4889 9.45518 27.4889 11.5975 27.4889H16.3998C18.5422 27.4889 20.2421 27.4889 21.5732 27.2973C22.9464 27.0995 24.0558 26.6823 24.9276 25.7482C25.7953 24.8186 26.1794 23.6428 26.3622 22.1863C26.5404 20.7665 26.5404 18.9506 26.5404 16.6501V14.7014C26.5404 13.3564 26.5404 12.2839 26.4608 11.4069C26.3787 10.5019 26.2074 9.73624 25.8272 9.01669C25.4461 8.29563 24.9186 7.74077 24.2316 7.19595C23.5684 6.66983 22.7077 6.11668 21.633 5.42587L19.222 3.87606C18.0862 3.14596 17.1768 2.56143 16.3897 2.16497C15.5754 1.75484 14.8248 1.50977 13.9987 1.50977ZM9.65815 5.44183C10.8432 4.68008 11.6764 4.14578 12.3729 3.79497C13.0516 3.45316 13.5323 3.32227 13.9987 3.32227C14.4651 3.32227 14.9458 3.45316 15.6244 3.79495C16.3209 4.14578 17.1542 4.68008 18.3393 5.44183L20.6726 6.94167C21.7936 7.66222 22.5806 8.16931 23.1677 8.63494C23.7388 9.088 24.0674 9.46188 24.2921 9.88696C24.5176 10.3135 24.6492 10.8123 24.7185 11.5764C24.7894 12.3589 24.7904 13.3464 24.7904 14.7457V16.5837C24.7904 18.9652 24.7886 20.6633 24.6268 21.9527C24.4679 23.219 24.1685 23.9538 23.6694 24.4885C23.1744 25.0189 22.5003 25.3337 21.3321 25.5021C20.1356 25.6744 18.5574 25.6764 16.332 25.6764H11.6654C9.43991 25.6764 7.86183 25.6744 6.66529 25.5021C5.49704 25.3337 4.82303 25.0189 4.32795 24.4885C3.82888 23.9538 3.52952 23.219 3.37059 21.9527C3.20877 20.6633 3.20703 18.9652 3.20703 16.5837V14.7457C3.20703 13.3464 3.20792 12.3589 3.27891 11.5764C3.34823 10.8123 3.47986 10.3135 3.7053 9.88696C3.92996 9.46188 4.25858 9.088 4.82977 8.63494C5.41682 8.16931 6.20384 7.66222 7.32482 6.94167L9.65815 5.44183Z" fill="#2B2B2B"/>
</svg>
