<svg width="20" height="29" viewBox="0 0 28 29" fill="none" xmlns="http://www.w3.org/2000/svg">
<path d="M6.06779 2.22046C5.3895 2.48191 4.66276 3.18879 4.32362 3.90535L4.0523 4.48635L4.02323 7.07179L3.98447 9.66691H3.21897C2.77324 9.66691 2.31782 9.72501 2.13371 9.80247C1.75581 9.96709 1.24225 10.49 1.10659 10.858C1.02907 11.0419 1 13.4918 1 18.3431C1 24.2596 1.01938 25.6056 1.13566 25.8671C1.30039 26.2447 1.82364 26.7579 2.19185 26.8935C2.37596 26.971 5.95151 27 13.4999 27C21.0483 27 24.6238 26.971 24.8079 26.8935C25.1761 26.7579 25.6994 26.2447 25.8641 25.8671C25.9804 25.6056 25.9998 24.2596 25.9998 18.3335C25.9998 10.4125 26.0289 10.7708 25.4087 10.1801C24.963 9.76374 24.6626 9.66691 23.7711 9.66691H23.0153L22.9766 7.07179L22.9475 4.48635L22.6762 3.90535C22.3273 3.16942 21.6103 2.48191 20.9029 2.21077C20.1471 1.92996 18.0347 1.92996 17.4824 2.21077C16.8138 2.54969 16.5231 3.03385 16.3584 4.06997C16.3196 4.30236 16.2034 4.5154 16.0096 4.67033L15.7092 4.9221H13.4999H11.2906L10.9902 4.67033C10.7964 4.5154 10.6802 4.30236 10.6414 4.06997C10.4767 3.03385 10.186 2.54969 9.51737 2.21077C8.97474 1.92996 6.80421 1.93964 6.06779 2.22046ZM9.1104 3.48897C9.24605 3.61485 9.33326 3.80852 9.33326 3.98282C9.33326 4.76716 9.87589 5.60961 10.6317 6.01631C11.0096 6.21966 11.1356 6.22934 13.4999 6.22934C15.8448 6.22934 15.9902 6.21966 16.3584 6.01631C17.1336 5.59993 17.6665 4.82526 17.6665 4.09902C17.6665 3.85693 17.744 3.67295 17.9088 3.50834C18.151 3.26625 18.1898 3.25657 19.1975 3.2953C20.4281 3.33404 20.8448 3.49865 21.3002 4.13775L21.5909 4.55413L21.62 14.4214C21.6394 23.9885 21.6394 24.2984 21.4553 24.6566C21.2227 25.1118 20.9126 25.4023 20.4572 25.5959C20.1374 25.7218 19.2266 25.7412 13.4321 25.7412H6.76545L6.38755 25.5185C6.17437 25.4023 5.87399 25.1408 5.70926 24.9375L5.40888 24.5598L5.37981 14.6441C5.36043 5.02861 5.36043 4.71875 5.54453 4.36046C5.97089 3.5277 6.49414 3.28562 7.8701 3.27594C8.78094 3.27594 8.90691 3.2953 9.1104 3.48897ZM4.00385 17.4426C4.00385 24.4242 4.01354 24.6373 4.49803 25.4216L4.70152 25.7412H3.70347C2.812 25.7412 2.68603 25.7218 2.48255 25.5281L2.25968 25.3248V18.3141C2.25968 10.1704 2.15309 10.9257 3.32556 10.9257H4.00385V17.4426ZM24.5463 11.1194C24.7401 11.3131 24.7401 11.439 24.7401 18.3044V25.2957L24.5269 25.5185C24.3331 25.7218 24.2362 25.7412 23.306 25.7412H22.2983L22.5018 25.4216C22.9862 24.6373 22.9959 24.4242 22.9959 17.4426V10.9257H23.6742C24.2265 10.9257 24.3913 10.9645 24.5463 11.1194Z" fill="#2B2B2B"/>
<path d="M8.8097 9.87999C8.59653 10.1899 8.6159 10.4707 8.87753 10.7127C9.1004 10.9258 9.11978 10.9258 13.5093 10.9258H17.9278L18.1313 10.7031C18.3833 10.4416 18.4026 10.1802 18.1895 9.87999L18.0441 9.66695H13.4996H8.95505L8.8097 9.87999Z" fill="#2B2B2B"/>
<path d="M8.8985 14.072C8.76284 14.1979 8.65625 14.3915 8.65625 14.5077C8.65625 14.6142 8.76284 14.8176 8.8985 14.9435L9.13105 15.1855H13.5012H17.8713L18.1038 14.9435C18.2395 14.8176 18.3461 14.6239 18.3461 14.5077C18.3461 14.3915 18.2395 14.1979 18.1038 14.072L17.8713 13.8299H13.5012H9.13105L8.8985 14.072Z" fill="#2B2B2B"/>
<path d="M8.8985 18.3337C8.76284 18.4596 8.65625 18.6532 8.65625 18.7694C8.65625 18.876 8.76284 19.0793 8.8985 19.2052L9.13105 19.4473H13.5012H17.8713L18.1038 19.2052C18.2395 19.0793 18.3461 18.8856 18.3461 18.7694C18.3461 18.6532 18.2395 18.4596 18.1038 18.3337L17.8713 18.0916H13.5012H9.13105L8.8985 18.3337Z" fill="#2B2B2B"/>
<path d="M10.8834 2.20828C10.6315 2.46004 10.6411 2.70212 10.8931 3.02167L11.0869 3.27344H13.4997H15.9124L16.1062 3.02167C16.3582 2.70212 16.3678 2.46004 16.1159 2.20828C15.9318 2.02429 15.7961 2.01461 13.4997 2.01461C11.2032 2.01461 11.0675 2.02429 10.8834 2.20828Z" fill="#2B2B2B"/>
</svg>
