<svg width="20" height="29" viewBox="0 0 28 29" fill="none" xmlns="http://www.w3.org/2000/svg">
<path d="M5.05089 5.47383C5.4828 4.57173 5.69874 4.12068 5.99606 3.79306C6.25917 3.50313 6.56727 3.28451 6.90103 3.15093C7.27816 3 7.6979 3 8.53736 3H19.4627C20.3021 3 20.7218 3 21.0989 3.15093C21.4327 3.28451 21.7408 3.50313 22.004 3.79306C22.3013 4.12068 22.5172 4.57173 22.9492 5.47383L25.4206 10.6359C25.6362 11.0864 25.744 11.3117 25.8203 11.5521C25.888 11.7655 25.937 11.9875 25.9667 12.2142C26 12.4695 26 12.7322 26 13.2575V20.9046C26 22.6882 26 23.5799 25.723 24.2612C25.4793 24.8604 25.0907 25.3475 24.6125 25.6529C24.0688 26 23.3573 26 21.9341 26H6.06588C4.6427 26 3.9311 26 3.38751 25.6529C2.90936 25.3475 2.5206 24.8604 2.27697 24.2612C2 23.5799 2 22.6882 2 20.9046V13.2575C2 12.7322 2 12.4695 2.03332 12.2142C2.06291 11.9875 2.11198 11.7655 2.17968 11.5521C2.25592 11.3117 2.36376 11.0864 2.57942 10.6359L5.05089 5.47383Z" stroke="#222222" stroke-width="1.8"/>
<path d="M26 15.5449H22.388C21.4058 15.5449 20.9147 15.5449 20.5449 15.8739C20.1753 16.2027 20.02 16.7777 19.7095 17.9277L19.5847 18.3894C19.2741 19.5394 19.1188 20.1144 18.7492 20.4432C18.3794 20.7722 17.8883 20.7722 16.9061 20.7722H11.0939C10.1117 20.7722 9.62062 20.7722 9.25089 20.4432C8.88117 20.1144 8.72587 19.5394 8.41527 18.3894L8.29061 17.9277C7.98001 16.7777 7.82472 16.2027 7.45499 15.8739C7.08526 15.5449 6.59416 15.5449 5.61197 15.5449H2" stroke="#222222" stroke-width="1.8"/>
</svg>
