<svg width="20" height="29" viewBox="0 0 28 29" fill="none" xmlns="http://www.w3.org/2000/svg">
<path d="M24.5666 7.94709C23.6266 6.98704 22.4121 6.38584 21.097 6.21879C20.2015 3.16113 17.3619 1 14.1265 1C10.8912 1 8.05162 3.16113 7.15605 6.21879C5.84089 6.38584 4.62646 6.98704 3.68643 7.94709C2.59891 9.05772 2 10.5257 2 12.0804C2 15.1163 4.12293 17.5498 6.96176 17.9373V27.0751H21.2913V17.9374C24.1301 17.5498 26.253 15.1163 26.253 12.0804C26.253 10.5257 25.6541 9.05772 24.5666 7.94709ZM19.6949 25.4787H8.5582V22.9106H19.6949V25.4787ZM20.4931 16.3948H19.6949V21.3143H17.7186H16.1221H14.9248H13.3284H12.1311H10.5346H8.55825V16.3948H7.76006C5.42531 16.3948 3.59649 14.4997 3.59649 12.0804C3.59649 9.7563 5.48668 7.82211 7.81002 7.76879L8.44733 7.75417L8.57404 7.12944C9.10664 4.50283 11.4418 2.59644 14.1265 2.59644C16.7935 2.59644 19.1147 4.47802 19.6674 7.07764C19.6789 7.44071 19.6612 9.48562 17.8496 9.96511L18.258 11.5084C19.6105 11.1504 20.5603 10.2261 21.0046 8.83553C21.1167 8.48463 21.1816 8.14937 21.2186 7.85934C23.1726 8.26956 24.6566 10.0213 24.6566 12.0804C24.6566 14.4997 22.8278 16.3948 20.4931 16.3948Z" fill="#2B2B2B"/>
</svg>
