<svg width="20" height="29" viewBox="0 0 28 29" fill="none" xmlns="http://www.w3.org/2000/svg">
<path d="M14.1824 18.1539C16.2011 18.1539 17.8375 16.5176 17.8375 14.4988C17.8375 12.4801 16.2011 10.8438 14.1824 10.8438C12.1637 10.8438 10.5273 12.4801 10.5273 14.4988C10.5273 16.5176 12.1637 18.1539 14.1824 18.1539Z" stroke="#2B2B2B" stroke-width="1.9375" stroke-miterlimit="10" stroke-linecap="round" stroke-linejoin="round"/>
<path d="M2 15.5721V13.4278C2 12.1607 3.03561 11.113 4.31489 11.113C6.52013 11.113 7.42172 9.55346 6.31301 7.64063C5.67946 6.5441 6.05715 5.11862 7.16587 4.48507L9.27364 3.27889C10.2361 2.70625 11.4789 3.0474 12.0515 4.0099L12.1855 4.24139C13.2821 6.15423 15.0852 6.15423 16.1939 4.24139L16.328 4.0099C16.9006 3.0474 18.1433 2.70625 19.1058 3.27889L21.2136 4.48507C22.3223 5.11862 22.7 6.5441 22.0665 7.64063C20.9578 9.55346 21.8593 11.113 24.0646 11.113C25.3317 11.113 26.3795 12.1485 26.3795 13.4278V15.5721C26.3795 16.8392 25.3439 17.887 24.0646 17.887C21.8593 17.887 20.9578 19.4465 22.0665 21.3594C22.7 22.4681 22.3223 23.8814 21.2136 24.5149L19.1058 25.7211C18.1433 26.2937 16.9006 25.9526 16.328 24.9901L16.1939 24.7586C15.0974 22.8458 13.2942 22.8458 12.1855 24.7586L12.0515 24.9901C11.4789 25.9526 10.2361 26.2937 9.27364 25.7211L7.16587 24.5149C6.05715 23.8814 5.67946 22.4559 6.31301 21.3594C7.42172 19.4465 6.52013 17.887 4.31489 17.887C3.03561 17.887 2 16.8392 2 15.5721Z" stroke="#2B2B2B" stroke-width="1.9375" stroke-miterlimit="10" stroke-linecap="round" stroke-linejoin="round"/>
</svg>
