<svg width="32" height="32" viewBox="0 0 32 32" fill="none" xmlns="http://www.w3.org/2000/svg">
<path d="M4.725 1.59375C3.93125 1.9 3.4 2.81875 3.15625 4.33125C2.825 6.36875 3.1125 10.075 3.84375 13.1187C3.9625 13.6125 4.0625 14.025 4.0625 14.0375C4.0625 14.05 3.89375 14.0437 3.69375 14.025C3.35 13.9875 3.3125 13.9937 3.1625 14.1437L3 14.3062V22.25V30.1937L3.15625 30.3437L3.30625 30.5H16H28.6938L28.8438 30.3437L29 30.1937V22.25V14.3062L28.8375 14.1437C28.6938 14 28.6438 13.9875 28.3063 14.0187C28.0813 14.0375 27.8313 14.1125 27.65 14.2125C27.4875 14.3 27.35 14.375 27.3438 14.375C27.3313 14.375 27.3563 14.2562 27.3938 14.1062C27.4313 13.9625 27.4625 13.4062 27.4563 12.875C27.4563 12.0062 27.4375 11.85 27.2875 11.3437C26.7563 9.58125 25.4938 8.675 23.9563 8.95625C23.7938 8.98125 23.6875 8.975 23.6875 8.94375C23.6875 8.80625 24.125 8.33125 24.375 8.1875C24.6 8.0625 24.7688 8.03125 25.2375 8.0125C25.7625 7.9875 25.825 7.96875 25.9375 7.825C26.1063 7.61875 26.0938 7.41875 25.9125 7.20625C25.7813 7.05 25.7188 7.03125 25.2875 7.0125C24.2063 6.95625 23.2438 7.5375 22.7813 8.5125L22.6438 8.80625L22.4313 8.5875C22.3125 8.46875 22.0125 8.2625 21.7625 8.14375C21.375 7.95 21.225 7.9125 20.7875 7.8875C20.2438 7.85625 19.7625 7.95625 19.3125 8.1875L19.0875 8.30625L18.725 7.9C18.3438 7.475 17.775 7.0375 17.3 6.80625L17 6.6625V6.08125C17 5.6 17.0188 5.5 17.0938 5.5C17.15 5.5 17.2625 5.43125 17.3438 5.34375C17.5 5.19375 17.5 5.18125 17.5 4C17.5 2.81875 17.5 2.80625 17.3438 2.65625L17.1938 2.5H15H12.8063L12.6563 2.65625C12.5 2.80625 12.5 2.81875 12.5 4C12.5 5.18125 12.5 5.19375 12.6563 5.34375C12.7375 5.43125 12.85 5.5 12.9063 5.5C12.9813 5.5 13 5.6 13 6.08125V6.6625L12.6438 6.8375C12 7.15 11.1875 7.875 10.8563 8.41875C10.7938 8.53125 10.7188 8.625 10.7 8.625C10.675 8.625 10.5313 8.30625 10.3813 7.91875C9.95625 6.84375 8.9375 4.86875 8.3625 4C7.6875 2.98125 6.78125 2.04375 6.175 1.75C5.675 1.50625 5.10625 1.45 4.725 1.59375ZM5.75625 2.65625C6.95625 3.26875 8.74375 6.2125 9.96875 9.61875C10.1125 10.0125 10.125 10.0937 10.0625 10.45C10.0313 10.6687 10 11.7125 10 12.775V14.7125L9.8 14.5125C9.4625 14.1937 9.0375 14.0312 8.5 14.0312C7.875 14.0312 7.46875 14.2187 6.96875 14.7437C6.525 15.2062 6.34375 15.3125 6 15.3125C5.4875 15.3125 5.425 15.2312 5.1625 14.275C4.5 11.8812 4.11875 9.41875 4.025 6.9375C3.94375 4.81875 4.275 3.16875 4.875 2.6625C5.125 2.45625 5.35625 2.45625 5.75625 2.65625ZM16.5 4V4.5H15H13.5V4V3.5H15H16.5V4ZM16 6.33125C16 7.2875 16.0313 7.3625 16.4813 7.53125C16.9813 7.71875 17.45 8.03125 17.8625 8.4625C18.075 8.68125 18.25 8.88125 18.25 8.90625C18.25 8.93125 18.125 9.09375 17.9813 9.26875C16.7063 10.7875 16.1188 13 16.5063 14.8125C16.5625 15.0625 16.5563 15.1062 16.4313 15.2C16.2688 15.3375 15.8125 15.35 15.575 15.225C15.4813 15.175 15.2438 14.9625 15.0438 14.75C14.5438 14.2187 14.1313 14.0312 13.4688 14.0375C12.8188 14.0375 12.4813 14.2 11.9375 14.7562C11.5063 15.2 11.3438 15.3125 11.125 15.3125H10.9938L11.0125 12.8562C11.0375 10.5312 11.0438 10.3875 11.175 10C11.5438 8.8875 12.4125 7.9625 13.45 7.5625C13.9813 7.35625 14 7.30625 14 6.3375V5.5H15H16V6.33125ZM21.3 9.025C21.6813 9.21875 22.0938 9.66875 22.2813 10.0875C22.3938 10.3375 22.475 10.4375 22.6313 10.5C22.8125 10.575 22.8563 10.5687 23.0563 10.45C23.775 10.025 24.0188 9.9375 24.5 9.9375C24.9063 9.9375 25.0125 9.9625 25.2875 10.125C26.45 10.7875 26.8438 13.0437 26.125 14.9562C26.025 15.225 25.9625 15.3125 25.8688 15.3125C25.6563 15.3125 25.4188 15.15 25.0438 14.75C24.5438 14.2187 24.1313 14.0312 23.4688 14.0375C22.8125 14.0375 22.4813 14.2 21.9375 14.7562C21.4625 15.2437 21.35 15.3125 21 15.3125C20.6563 15.3125 20.55 15.25 20 14.7187C19.425 14.1687 19.1125 14.0312 18.4375 14.0312C18.075 14.0375 17.9063 14.0687 17.7063 14.175L17.4438 14.3125L17.4063 13.9687C17.3438 13.5125 17.475 12.5312 17.6688 11.9062C17.95 11.0062 18.4313 10.2 18.9813 9.6875C19.4563 9.2375 19.5313 9.1875 19.9188 9.025C20.4125 8.825 20.9063 8.825 21.3 9.025ZM8.8375 15.0625C8.925 15.0937 9.1875 15.3125 9.41875 15.55C10.0313 16.175 10.2625 16.2812 11 16.2812C11.7375 16.2812 11.9625 16.175 12.6063 15.525C13.325 14.8062 13.675 14.8062 14.3938 15.525C15.0375 16.175 15.2625 16.2812 16 16.2812C16.7375 16.2812 16.9688 16.175 17.5813 15.55C17.8125 15.3125 18.075 15.0937 18.1625 15.0625C18.5813 14.9 19.0313 15.0875 19.475 15.6062C19.6125 15.7687 19.8813 15.9937 20.0688 16.0937C20.375 16.2625 20.4563 16.2812 21 16.2812C21.5438 16.2812 21.625 16.2625 21.9313 16.0937C22.1188 15.9937 22.3813 15.7687 22.525 15.6062C22.6625 15.4375 22.8313 15.275 22.8875 15.2437C22.9938 15.1875 23 15.5125 23 22.3437V29.5H13.5H4V22.3375C4 15.65 4.00625 15.175 4.10625 15.2562C4.1625 15.3062 4.35 15.4875 4.525 15.6562C5.00625 16.1375 5.35 16.2812 6 16.2812C6.69375 16.2812 6.98125 16.1437 7.56875 15.5625C7.8125 15.3187 8.075 15.0937 8.15 15.0625C8.33125 14.9875 8.64375 14.9875 8.8375 15.0625ZM24.4875 15.6312C24.625 15.7875 24.8938 16 25.075 16.1C25.375 16.2625 25.4625 16.2812 26 16.2812C26.5438 16.2812 26.625 16.2625 26.9313 16.0937C27.1188 15.9937 27.3938 15.7625 27.55 15.5812C27.7063 15.4 27.8688 15.2437 27.9125 15.225C27.9875 15.1937 28 16.3562 28 22.3437V29.5H26H24V22.3375C24 15.4687 24.0063 15.1812 24.1125 15.2625C24.175 15.3062 24.3438 15.475 24.4875 15.6312Z" fill="black"/>
<path d="M6.60773 5.01434C6.46398 5.12684 5.23273 8.73934 5.28273 8.92059C5.37648 9.28934 5.82648 9.43309 6.08898 9.17059C6.27648 8.98309 7.46398 5.45809 7.40148 5.27684C7.32023 5.04559 7.17648 4.93934 6.93898 4.93934C6.81398 4.93934 6.66398 4.97684 6.60773 5.01434Z" fill="black"/>
<path d="M7.7625 9.3938C7.61875 9.5438 6.4375 12.9501 6.4375 13.2126C6.4375 13.5626 7 13.7813 7.25 13.5251C7.4 13.3751 8.5625 9.9938 8.5625 9.71255C8.5625 9.31255 8.0375 9.10005 7.7625 9.3938Z" fill="black"/>
</svg>
