<svg width="32" height="32" viewBox="0 0 32 32" fill="none" xmlns="http://www.w3.org/2000/svg">
<path d="M0.677457 0.669921C0.398942 0.948437 0.453434 1.31172 0.804606 1.49336C0.943863 1.56602 1.22843 1.58418 2.17902 1.58418H3.37785L4.64933 4.1332C5.40011 5.64082 5.98136 6.73066 6.06613 6.79727C6.24777 6.94258 6.50207 6.94258 6.68371 6.79727C6.76847 6.73066 7.34972 5.64082 8.1005 4.1332L9.37199 1.58418H11.1884H13.0048L14.2763 4.1332C15.0271 5.64082 15.6083 6.73066 15.6931 6.79727C15.8747 6.94258 16.129 6.94258 16.3107 6.79727C16.3954 6.73066 16.9767 5.64082 17.7275 4.1332L18.9989 1.58418H20.8153H22.6318L23.9032 4.1332C24.654 5.64082 25.2353 6.73066 25.32 6.79727C25.5017 6.94258 25.756 6.94258 25.9376 6.79727C26.0224 6.73066 26.6036 5.64082 27.3544 4.1332L28.6259 1.58418H29.8247C30.7753 1.58418 31.0599 1.56602 31.1991 1.49336C31.5503 1.31172 31.6048 0.948437 31.3263 0.669921L31.1507 0.494336H16.0019H0.853043L0.677457 0.669921ZM7.30734 3.35215C6.82297 4.32695 6.41125 5.13828 6.39914 5.15039C6.38097 5.16855 4.61906 1.675 4.61906 1.61445C4.61906 1.59629 5.42433 1.58418 6.40519 1.58418H8.19132L7.30734 3.35215ZM17.7577 1.61445C17.7577 1.675 16.0321 5.0959 16.0019 5.0959C15.9716 5.0959 14.246 1.675 14.246 1.61445C14.246 1.59629 15.0392 1.58418 16.0019 1.58418C16.9706 1.58418 17.7577 1.59629 17.7577 1.61445ZM27.3847 1.61445C27.3847 1.675 25.6228 5.16855 25.6046 5.15039C25.5925 5.13828 25.1808 4.32695 24.6964 3.35215L23.8124 1.58418H25.5986C26.5794 1.58418 27.3847 1.59629 27.3847 1.61445Z" fill="black"/>
<path d="M3.83321 9.67285C3.3004 9.90293 3.20958 10.1148 3.1672 11.2471C3.13087 12.2521 3.14903 12.2037 2.59806 12.8879C2.48302 13.0271 2.3256 13.2996 2.25294 13.4934C2.10763 13.8445 2.10763 13.8506 2.08946 17.3018L2.0713 20.759L1.67775 20.7953C1.16915 20.8437 0.890636 20.983 0.696886 21.2797C0.53341 21.5219 0.53341 21.534 0.515245 22.8297C0.497081 24.2828 0.539464 24.5189 0.872472 24.7975L1.04806 24.9488V28.0428V31.1428L1.22364 31.3184C1.32052 31.4152 1.46583 31.4939 1.53849 31.4939C1.61114 31.4939 2.51329 31.1367 3.53653 30.7008L5.39532 29.9076L10.6992 30.7008L16.0092 31.5L21.3131 30.7068L26.6231 29.9076L28.4758 30.7008C29.499 31.1367 30.3951 31.4939 30.4678 31.4939C30.5404 31.4939 30.6858 31.4152 30.7826 31.3184L30.9582 31.1428V28.0428V24.9488L31.1338 24.7975C31.4668 24.5189 31.5092 24.2828 31.491 22.8297C31.4729 21.534 31.4729 21.5219 31.3094 21.2797C31.0188 20.8437 30.8856 20.8074 29.2508 20.7893L27.8098 20.765L27.5736 20.4986C27.2527 20.1354 27.2043 19.8811 27.2043 18.6338V17.5682L27.5676 17.3865C28.1973 17.0717 28.6332 16.5812 29.0631 15.7215C29.4203 15.007 29.8623 13.4328 29.8684 12.8637C29.8684 12.2219 29.9713 12.24 26.6654 12.24H23.8863L23.6986 12.3975C23.4686 12.5912 23.4565 12.7971 23.626 13.6023C24.0619 15.6367 24.8672 16.999 25.8965 17.4229L26.175 17.5379V18.6338C26.175 19.9113 26.1145 20.1898 25.7693 20.5471L25.5453 20.7771H24.51H23.4746L23.3717 20.1414C23.184 19.0273 22.8207 18.1191 22.191 17.1746C21.0709 15.4854 19.2121 14.2926 17.2141 13.9656C16.8992 13.9172 16.6207 13.8748 16.6026 13.8748C16.5783 13.8748 16.5481 13.6932 16.5359 13.4752C16.5117 13.124 16.4875 13.0514 16.3422 12.9303C16.2514 12.8516 16.1 12.785 16.0031 12.785C15.9063 12.785 15.7549 12.8516 15.6641 12.9303C15.5188 13.0514 15.4945 13.124 15.4703 13.4752C15.4582 13.6932 15.4279 13.8748 15.4037 13.8748C15.3856 13.8748 15.107 13.9172 14.7922 13.9656C12.782 14.2926 10.9354 15.4854 9.80314 17.1928C9.15528 18.1676 8.792 19.1121 8.61036 20.2928L8.53771 20.7771H8.00489H7.47208L7.45392 17.2775C7.43575 13.8203 7.43575 13.7779 7.30255 13.451C7.22384 13.2693 7.0422 12.9666 6.89083 12.785C6.43068 12.234 6.41857 12.1916 6.37618 11.1744C6.34591 10.2844 6.33986 10.2541 6.17032 10.0361C5.89181 9.6668 5.61935 9.57598 4.77169 9.58203C4.2631 9.58203 3.98458 9.60625 3.83321 9.67285ZM5.28634 11.1623C5.28634 12.1613 5.44982 12.7184 5.89181 13.2391C6.2672 13.6871 6.37618 13.9535 6.37618 14.4621V14.9041H4.76564H3.15509L3.17931 14.4318C3.20958 13.893 3.3004 13.6689 3.67579 13.227C4.08751 12.7486 4.2086 12.3551 4.24493 11.4348L4.26915 10.6658H4.77775H5.28634V11.1623ZM28.6877 13.5236C28.6635 13.6326 28.5969 13.8748 28.5424 14.0564L28.4395 14.3895H26.6897H24.9399L24.8369 14.0564C24.7824 13.8748 24.7219 13.6326 24.7037 13.5236L24.6674 13.3299H26.6957H28.7301L28.6877 13.5236ZM17.2807 15.0555C19.3332 15.4914 21.0346 16.8779 21.9004 18.8275C22.0942 19.2635 22.3606 20.2807 22.3606 20.5713V20.7771H16.0031H9.64571V20.5713C9.64571 20.2807 9.91212 19.2635 10.1059 18.8275C11.0443 16.7084 12.994 15.2492 15.2645 14.9646C15.7731 14.898 16.7479 14.9465 17.2807 15.0555ZM27.9006 15.6367C27.6524 16.109 27.0772 16.5389 26.6897 16.5389C26.3022 16.5389 25.727 16.109 25.4727 15.6125L25.3818 15.449H26.6897H27.9975L27.9006 15.6367ZM6.37618 18.3855V20.7771H4.77169H3.1672V18.3855V15.9939H4.77169H6.37618V18.3855ZM30.4133 22.9266V23.9861H16.0031H1.59298V22.9266V21.867H16.0031H30.4133V22.9266ZM29.9168 27.6008C29.9229 29.3506 29.9108 30.1014 29.8684 30.1014C29.832 30.1014 29.2145 29.8531 28.5 29.5443L27.2043 28.9934V27.7279C27.2043 26.4686 27.2043 26.4625 27.0529 26.3172C26.8531 26.1113 26.5262 26.1113 26.3264 26.3172C26.175 26.4625 26.175 26.4686 26.175 27.6734V28.8783L26.0115 28.9146C25.9147 28.9328 23.8258 29.2477 21.3615 29.617C18.8973 29.9863 16.8084 30.3012 16.7176 30.3193L16.5481 30.3557V28.4484V26.5412L16.3906 26.3535C16.1666 26.0871 15.8397 26.0871 15.6156 26.3535L15.4582 26.5412V28.4484V30.3557L15.2947 30.3193C15.1979 30.3012 13.1211 29.9863 10.675 29.617C8.22892 29.2537 6.134 28.9389 6.03107 28.9207L5.83126 28.8844V27.6734C5.83126 26.4686 5.83126 26.4625 5.67989 26.3172C5.48009 26.1113 5.15314 26.1113 4.95333 26.3172C4.80196 26.4625 4.80196 26.4686 4.80196 27.7279V28.9994L3.51232 29.5504C2.80392 29.8531 2.19239 30.1014 2.15001 30.1014C2.09552 30.1014 2.07736 29.5141 2.07736 27.6311C2.07736 26.2687 2.09552 25.1365 2.11974 25.1184C2.1379 25.0941 8.39845 25.082 16.0274 25.0881L29.8986 25.1062L29.9168 27.6008Z" fill="black"/>
<path d="M16.8193 16.1859C16.6316 16.2949 16.5529 16.4281 16.5469 16.64C16.5469 16.9186 16.7527 17.1123 17.1826 17.2334C18.1695 17.5059 19.1686 18.2869 19.6893 19.183C19.9557 19.6432 20.0707 19.7461 20.3311 19.7461C20.549 19.7461 20.8457 19.4434 20.8457 19.2254C20.8457 19.1346 20.7609 18.9105 20.658 18.7229C19.9799 17.524 18.884 16.6461 17.5459 16.2283C17.1281 16.0951 16.9889 16.0891 16.8193 16.1859Z" fill="black"/>
</svg>
