<svg width="36" height="32" viewBox="0 0 36 32" fill="none" xmlns="http://www.w3.org/2000/svg">
<path d="M22.0559 1.02843C21.4571 1.60829 21.41 1.72557 21.6387 2.01224C21.7397 2.13603 21.8339 2.18164 22.0155 2.18164C22.2309 2.18164 22.3251 2.123 22.7557 1.70602C23.1863 1.28904 23.2469 1.19783 23.2469 0.989334C23.2469 0.813421 23.1998 0.722206 23.072 0.624476C22.7759 0.402954 22.6548 0.448562 22.0559 1.02843Z" fill="black"/>
<path d="M17.3686 1.60111C17.0389 1.87476 16.8438 2.40901 16.8438 3.00842C16.8438 3.86193 17.382 4.66332 18.203 5.04121C18.7076 5.26924 19.616 5.28228 20.1005 5.06727C20.6791 4.81317 20.9416 4.36361 20.7666 3.94663C20.7195 3.8489 20.1341 3.22995 19.4545 2.58493L18.2299 1.39914H17.9136C17.6647 1.39914 17.557 1.43823 17.3686 1.60111ZM19.5689 4.21376C19.0171 4.42225 18.1559 4.02482 17.9338 3.45147C17.8463 3.23646 17.8329 2.68266 17.9069 2.56538C17.9338 2.51977 18.2972 2.82599 18.8153 3.32768C19.5218 4.00527 19.6631 4.17467 19.5689 4.21376Z" fill="black"/>
<path d="M25.1804 3.61368C24.5142 3.77657 23.8952 4.28476 23.5991 4.90372C23.2425 5.64647 23.4107 6.8062 23.9355 7.22969C24.0903 7.36 24.2114 7.39258 24.4806 7.39258H24.8237L26.0887 6.1677L27.3537 4.94281V4.61053C27.3537 4.19355 27.1653 3.95248 26.6741 3.75051C26.2839 3.58762 25.5639 3.52247 25.1804 3.61368ZM26.1897 4.61705C26.2166 4.64311 25.8532 5.03403 25.3822 5.48359C24.9179 5.93966 24.5142 6.29149 24.494 6.27194C24.4671 6.24588 24.4335 6.11557 24.4133 5.97224C24.3123 5.22949 25.0458 4.48674 25.8263 4.54538C26.0013 4.55841 26.1695 4.59098 26.1897 4.61705Z" fill="black"/>
<path d="M11.8409 4.23257C11.5516 4.50621 11.6121 4.67561 12.1908 5.24896C12.6282 5.68549 12.7358 5.76367 12.931 5.76367C13.2136 5.76367 13.4222 5.56821 13.4222 5.29457C13.4222 5.12517 13.3347 5.00138 12.8973 4.57788C12.3119 4.01105 12.1235 3.95241 11.8409 4.23257Z" fill="black"/>
<path d="M31.7459 6.35732C31.147 6.46808 31.0461 6.55278 29.5725 8.20768C28.9332 8.92436 28.3613 9.56287 28.3007 9.62151C28.1998 9.73227 28.1729 9.72575 27.8566 9.50423C27.3789 9.16543 26.6657 8.8527 26.0466 8.69633C25.0373 8.44875 23.6377 8.55299 22.6755 8.95694C22.1103 9.19149 21.2557 9.78439 20.8386 10.2339L20.4348 10.664L20.0782 10.5532C19.8562 10.488 19.3717 10.4294 18.8401 10.4099C18.0865 10.3773 17.8779 10.3968 17.3934 10.5141C15.6574 10.9246 14.2107 12.1885 13.6186 13.7913L13.4033 14.3647H12.1114C10.9069 14.3647 10.806 14.3712 10.6378 14.5015C10.5099 14.5992 10.4628 14.697 10.4628 14.8598C10.4628 15.2051 10.6512 15.342 11.129 15.342H11.526L13.6657 18.5736C14.8836 20.4174 15.9333 21.9225 16.0948 22.0853C16.7609 22.7173 17.4204 22.8998 19.0622 22.8998H20.1522V24.1246V25.356L19.6005 25.558C18.5306 25.9555 17.5953 26.6005 16.9763 27.3888L16.6196 27.8449H15.7987L14.9711 27.8514V26.9523V26.0532L15.2066 25.9424C15.5565 25.7795 15.6641 25.5189 15.6978 24.711C15.7449 23.6881 15.6776 23.3298 15.4085 23.0431C15.2066 22.8281 15.1528 22.8085 14.7423 22.7825L14.2982 22.7564V22.5154C14.2982 21.8703 13.7397 21.1015 13.0736 20.8083C12.5218 20.5738 11.8355 20.5868 11.2837 20.8539C10.8127 21.0755 10.732 21.0494 10.732 20.6845C10.732 20.046 10.1735 19.2707 9.50734 18.984C9.00942 18.769 8.28271 18.769 7.78478 18.984C7.19265 19.2447 6.56015 20.046 6.56015 20.5477C6.56015 20.6194 6.4323 20.6976 6.21026 20.7758C5.51047 21.0103 4.87796 21.8312 4.87796 22.5154V22.7564L4.43387 22.7825C4.02341 22.8085 3.96958 22.8281 3.76772 23.0431C3.49857 23.3298 3.43128 23.6881 3.47838 24.711C3.51203 25.5189 3.61969 25.7795 3.96958 25.9424L4.20509 26.0532V26.9523V27.8514H2.71131C1.64144 27.8514 1.16369 27.8775 1.04258 27.9361C0.793614 28.0599 0.733055 28.301 0.827257 28.8483C1.04931 30.1253 2.0788 31.1677 3.38418 31.4283C3.63315 31.4805 6.95715 31.5 14.6952 31.5H25.6496L25.8313 31.3632C26.0331 31.2133 26.0668 30.8941 25.912 30.6791C25.8178 30.5553 25.6025 30.5553 14.6548 30.5227L3.49857 30.4901L3.04774 30.2751C2.77859 30.1513 2.50272 29.9559 2.36141 29.793C2.13936 29.5454 1.85003 29.0372 1.85003 28.8939C1.85003 28.8483 7.15901 28.8287 17.999 28.8287C29.7878 28.8287 34.148 28.8483 34.148 28.9004C34.148 29.0633 33.7039 29.7604 33.4819 29.9494C33.354 30.0601 33.0782 30.2295 32.8696 30.3207L32.4995 30.4901L30.0569 30.5227C27.7355 30.5553 27.6077 30.5618 27.5135 30.6791C27.3587 30.8941 27.3924 31.2133 27.5942 31.3632C27.7692 31.4935 27.8499 31.5 30.0166 31.5C31.3892 31.5 32.3918 31.4739 32.6139 31.4283C33.9192 31.1677 34.9487 30.1253 35.1708 28.8483C35.265 28.301 35.2044 28.0599 34.9555 27.9361C34.8276 27.871 33.8587 27.8514 30.7836 27.8514L26.78 27.8449L26.4772 27.454C25.8246 26.6005 24.6941 25.8251 23.6041 25.4798L23.2474 25.3626V24.1312V22.8998H24.3442C24.9431 22.8998 25.616 22.8672 25.838 22.8346C26.3696 22.7499 27.0088 22.4372 27.3722 22.0853C27.5471 21.9159 28.5228 20.4826 29.7743 18.5736L31.8737 15.342H32.2707C32.7484 15.342 32.9368 15.2051 32.9368 14.8598C32.9368 14.697 32.8897 14.5992 32.7619 14.5015C32.5937 14.3712 32.4927 14.3647 31.3287 14.3647H30.0771L30.0704 13.5959C30.0637 13.1658 30.0166 12.6902 29.9627 12.4948L29.8618 12.1625L31.5104 10.7682C33.2867 9.26968 33.5693 8.99603 33.7174 8.65724C33.8318 8.39011 33.8385 7.7907 33.7308 7.44538C33.5088 6.71567 32.5735 6.20095 31.7459 6.35732ZM32.3111 7.32811C32.3649 7.32811 32.4995 7.41281 32.6071 7.51705C32.7552 7.6669 32.8023 7.77115 32.8023 7.96661C32.8023 8.10995 32.7821 8.27935 32.7552 8.33798C32.7148 8.45526 29.5388 11.1722 29.4514 11.1722C29.3908 11.1656 28.9602 10.5076 28.9669 10.4229C28.9669 10.3838 29.5657 9.69969 30.2857 8.90482C31.544 7.51054 31.8804 7.21735 32.1159 7.29553C32.1698 7.31508 32.2505 7.32811 32.3111 7.32811ZM26.1946 9.75181C27.8903 10.3382 29.1015 11.967 29.1015 13.6806C29.1015 13.8956 29.0813 14.1366 29.0611 14.2148L29.0207 14.3647H26.4167H23.8127L23.7319 14.0519C23.456 13.0421 22.6015 11.9214 21.572 11.2243L21.4172 11.1135L21.5585 10.9181C21.895 10.4685 22.9245 9.85606 23.7185 9.64105C24.3106 9.48468 25.5689 9.54332 26.1946 9.75181ZM20.0311 11.5761C21.2625 12.0257 22.2045 12.9052 22.6419 14.0324L22.7764 14.3647H18.6383C15.1595 14.3647 14.5001 14.3516 14.5001 14.2735C14.5001 14.065 15.0586 13.1268 15.4152 12.7489C16.0073 12.1169 16.6129 11.7455 17.4944 11.4849C18.1067 11.309 19.4188 11.3546 20.0311 11.5761ZM30.6491 15.368C30.6491 15.3811 30.1579 16.1499 29.5523 17.075L28.4555 18.7625L27.0021 18.7951C25.6967 18.8212 25.5352 18.8407 25.4074 18.9515C25.2257 19.1143 25.219 19.4662 25.4006 19.6421C25.5218 19.7594 25.6227 19.7724 26.6455 19.7724C27.2578 19.7724 27.7557 19.7854 27.7557 19.7985C27.7557 19.818 27.5673 20.1177 27.3453 20.4695C26.8541 21.2318 26.558 21.5446 26.1475 21.74L25.838 21.8899H21.8344C17.4069 21.8899 17.4136 21.8899 16.9224 21.4794C16.6869 21.2905 15.8391 20.1307 15.7314 19.8571C15.7045 19.7919 16.4783 19.7724 19.6408 19.7724C23.4964 19.7724 23.5839 19.7724 23.7185 19.6421C23.9203 19.4466 23.9001 19.1013 23.6781 18.9319C23.5031 18.7951 23.4426 18.7951 19.2506 18.7951H15.0047L14.0291 17.3161C13.4908 16.5017 12.9861 15.7264 12.8986 15.5896L12.7439 15.342H21.6931C26.6186 15.342 30.6491 15.355 30.6491 15.368ZM9.11708 19.9157C9.3795 20.046 9.72266 20.4109 9.72266 20.5542C9.72266 20.5803 9.56117 20.6194 9.37277 20.6389C9.17764 20.665 8.84793 20.7627 8.64606 20.8605L8.27598 21.0429L7.92609 20.88C7.72423 20.7888 7.57619 20.6715 7.56946 20.6129C7.56274 20.2936 8.22888 19.7724 8.64606 19.7724C8.74027 19.7724 8.95559 19.8376 9.11708 19.9157ZM7.37433 21.7009C7.60311 21.7922 7.64348 21.8312 7.60311 21.9485C7.57619 22.0267 7.54255 22.2417 7.52236 22.4241L7.48872 22.7695H6.688H5.88728V22.574C5.88728 22.3003 6.04204 22.0267 6.30446 21.8378C6.66108 21.5771 6.95715 21.5446 7.37433 21.7009ZM9.99854 21.7009C10.2273 21.7922 10.2677 21.8312 10.2273 21.9485C10.2004 22.0267 10.1668 22.2417 10.1466 22.4241L10.1129 22.7695H9.31221H8.51149V22.574C8.51149 22.3003 8.66625 22.0267 8.92867 21.8378C9.28529 21.5771 9.58136 21.5446 9.99854 21.7009ZM12.865 21.8312C13.1341 22.0267 13.2889 22.3003 13.2889 22.574V22.7695H12.2123H11.1357V22.574C11.1357 22.2026 11.5192 21.74 11.9095 21.6423C12.1787 21.5706 12.6362 21.6618 12.865 21.8312ZM22.2381 24.0399V25.1801H21.6998H21.1615V24.0399V22.8998H21.6998H22.2381V24.0399ZM14.6346 24.3983V25.0498H13.4638C12.3872 25.0498 12.2863 25.0628 12.1181 25.1866C11.896 25.356 11.8759 25.7014 12.0777 25.8968C12.1988 26.0141 12.2998 26.0271 13.0534 26.0271H13.8945V26.9393V27.8514H9.58809H5.28169V26.9393V26.0271H7.77133C10.1735 26.0271 10.2677 26.0206 10.3955 25.8968C10.5974 25.7014 10.5772 25.356 10.3552 25.1866C10.1802 25.0563 10.1062 25.0498 7.36087 25.0498H4.54153V24.3983V23.7468H9.58809H14.6346V24.3983ZM22.6957 26.2617C23.6444 26.4506 24.5125 26.8937 25.1988 27.5322L25.5016 27.8188L23.6041 27.8384C22.5544 27.8449 20.8453 27.8449 19.8023 27.8384L17.8981 27.8188L18.2009 27.5322C19.365 26.4311 21.0942 25.9424 22.6957 26.2617Z" fill="black"/>
<path d="M23.2897 10.9173C23.0609 11.0932 23.0475 11.432 23.2628 11.6275C23.3906 11.7448 23.4983 11.7578 24.1375 11.7578C24.7768 11.7578 24.8777 11.7448 24.9988 11.6275C25.2007 11.432 25.1805 11.0867 24.9584 10.9173C24.8037 10.8001 24.6826 10.7805 24.1241 10.7805C23.5656 10.7805 23.4445 10.8001 23.2897 10.9173Z" fill="black"/>
<path d="M26.0475 12.6771C25.8187 12.853 25.8053 13.1918 26.0206 13.3873C26.1485 13.5045 26.2561 13.5176 26.8953 13.5176C27.5346 13.5176 27.6355 13.5045 27.7566 13.3873C27.9585 13.1918 27.9383 12.8465 27.7163 12.6771C27.5615 12.5598 27.4404 12.5403 26.8819 12.5403C26.3234 12.5403 26.2023 12.5598 26.0475 12.6771Z" fill="black"/>
<path d="M14.696 6.89137C14.0164 7.16502 13.5993 7.57548 13.3301 8.24005C13.0677 8.88507 13.2426 9.94055 13.6867 10.351C13.929 10.5725 14.3327 10.6377 14.6086 10.5009C14.9316 10.338 17.1117 8.16838 17.1655 7.95989C17.2261 7.69928 17.0915 7.29532 16.8829 7.13896C16.3513 6.73501 15.3689 6.62425 14.696 6.89137ZM15.961 7.77094C16.0216 7.80352 15.7659 8.0902 15.1805 8.65703C14.6489 9.17174 14.299 9.46493 14.2721 9.41932C14.1847 9.28902 14.2183 8.644 14.3192 8.45505C14.4605 8.20096 14.7633 7.91428 15.0056 7.81004C15.2276 7.71882 15.8332 7.69276 15.961 7.77094Z" fill="black"/>
</svg>
