<svg width="32" height="30" viewBox="0 0 32 30" fill="none" xmlns="http://www.w3.org/2000/svg">
<path d="M2.83467 1.22461L2.33043 2.00977L1.49845 2.47266C1.03833 2.72461 0.660156 2.94141 0.660156 2.95898C0.660156 2.97656 1.03833 3.19336 1.49845 3.44531L2.33043 3.9082L2.83467 4.69336C3.112 5.12695 3.35151 5.47852 3.37042 5.47852C3.38933 5.47852 3.62253 5.12695 3.89356 4.69922L4.39149 3.92578L5.23609 3.45703C5.7025 3.19922 6.08068 2.97656 6.08068 2.95898C6.08068 2.94141 5.7025 2.71875 5.23609 2.46094L4.39149 1.99219L3.89356 1.21875C3.62253 0.791016 3.38933 0.439453 3.37042 0.439453C3.35151 0.439453 3.112 0.791016 2.83467 1.22461ZM3.62253 2.16797C3.78011 2.42578 3.89986 2.53711 4.22762 2.71289C4.44822 2.83008 4.631 2.94141 4.631 2.95898C4.631 2.97656 4.45452 3.08203 4.24653 3.19336C4.03223 3.30469 3.82423 3.45117 3.78011 3.51562C3.73599 3.58008 3.62253 3.75 3.52799 3.89062L3.35781 4.14258L3.112 3.76172C2.91661 3.45703 2.79055 3.33984 2.51952 3.19336C2.33043 3.09375 2.17286 2.98828 2.17286 2.95898C2.17286 2.92969 2.33043 2.82422 2.51952 2.72461C2.79685 2.57812 2.91661 2.46094 3.10569 2.16797C3.23175 1.96289 3.35781 1.81055 3.38302 1.82227C3.40824 1.83984 3.51538 1.99219 3.62253 2.16797Z" fill="black"/>
<path d="M20.8123 1.53516C19.9425 2.9707 19.9929 2.86523 19.9929 3.28711C19.9929 3.87305 20.39 4.42383 20.951 4.61133C21.1337 4.66992 21.14 4.68164 21.14 5.03906V5.4082L20.119 5.43164C19.0097 5.44922 18.8899 5.47852 18.5306 5.8125C18.1398 6.16992 18.1146 6.28125 18.1146 8.05664C18.1146 9.02344 18.1398 9.75586 18.184 9.89648C18.2596 10.1602 18.6693 10.5938 18.934 10.6934L19.1231 10.7637V12.0762V13.3887H18.0516C17.4654 13.3887 16.9801 13.4004 16.9801 13.4121C16.9801 13.4238 17.1629 13.957 17.3835 14.5957C17.6104 15.2344 17.7869 15.7617 17.7806 15.7734C17.7743 15.7793 17.4969 15.8262 17.1692 15.873C11.6163 16.7168 7.5257 21.1934 7.5257 26.4258V26.9824H6.76935H6.013V27.2812C6.013 27.4453 5.99409 27.5684 5.96258 27.5566C5.93736 27.5449 5.74197 27.4453 5.52137 27.334L5.13059 27.1289V24.498V21.873L5.66004 21.3516C6.76935 20.2734 7.5194 18.9316 7.87867 17.373C7.97321 16.9863 7.99842 16.6348 7.99212 15.8203C7.99212 14.8066 7.97321 14.6719 7.56982 12.334C7.33662 10.998 7.13492 9.84375 7.11601 9.76758L7.0845 9.63867H4.00236H0.920228L0.882411 9.79688C0.863502 9.89062 0.655505 11.0684 0.422297 12.4219C0.0252117 14.7539 0 14.9355 0 15.8496C0.00630293 16.6172 0.0315147 16.9395 0.144967 17.4316C0.491629 18.9375 1.22907 20.2617 2.33839 21.3516L2.86153 21.873V24.5039V27.1348L1.97912 27.5977L1.09671 28.0664V28.8105V29.5605H3.99606H6.89541V29.3262C6.89541 29.1973 6.90802 29.0918 6.92693 29.0918C6.94583 29.0918 7.06559 29.1562 7.19795 29.2324C7.76522 29.5781 7.10971 29.5605 19.1231 29.5488L30.1217 29.5312L30.4999 29.3906C30.7646 29.291 30.9915 29.1445 31.2626 28.8926C31.7164 28.4648 31.9181 28.0488 31.9685 27.4102L32 26.9824H31.2436H30.4873L30.4495 26.0859C30.4117 25.1836 30.3108 24.498 30.0902 23.6895C29.9705 23.2676 29.9642 23.0215 29.9642 19.3477V15.4512L30.1532 15.3809C30.418 15.2812 30.8277 14.8477 30.9033 14.584C30.9474 14.4434 30.9726 13.7051 30.9726 12.7383V11.1152L30.7961 10.8047C30.6701 10.5762 30.5377 10.4414 30.3108 10.3125C30.0083 10.1367 29.9957 10.1367 28.9746 10.1191L27.9472 10.1016V9.72656C27.9472 9.36914 27.9535 9.35742 28.1363 9.29883C28.6973 9.11719 29.107 8.53711 29.1006 7.93945C29.0943 7.75781 29.0628 7.54102 29.0187 7.46484C28.7918 7.04297 27.6005 5.12695 27.569 5.12695C27.5375 5.12695 26.3463 7.04297 26.1194 7.46484C26.0752 7.54102 26.0437 7.76953 26.0437 7.97461C26.0437 8.56055 26.4408 9.11133 27.0018 9.29883C27.1846 9.35742 27.1909 9.36914 27.1909 9.73242V10.1074H26.1824H25.1739V13.7461C25.1739 15.8086 25.1487 17.373 25.1172 17.3613C25.0857 17.3496 24.8084 17.209 24.4869 17.0508L23.9133 16.7578V11.0859V5.41992H22.9049H21.8964V5.04492C21.8964 4.66992 21.8964 4.66992 22.1107 4.59961C22.8544 4.37109 23.2767 3.35156 22.9049 2.66016C22.6654 2.2207 21.556 0.439453 21.5182 0.439453C21.4993 0.439453 21.1779 0.931641 20.8123 1.53516ZM21.9216 2.44336C22.325 3.09375 22.3754 3.31641 22.1926 3.64453C22.0855 3.83203 21.7577 4.01367 21.5182 4.01367C21.4426 4.01367 21.2787 3.9668 21.159 3.91406C20.8879 3.79688 20.6736 3.4043 20.7367 3.15234C20.7871 2.97656 21.4615 1.8457 21.5182 1.8457C21.5371 1.8457 21.7199 2.11523 21.9216 2.44336ZM23.157 11.2793C23.157 14.1152 23.1507 16.4355 23.1381 16.4355C23.1255 16.4355 22.9112 16.3711 22.659 16.2891C22.1863 16.1426 21.0203 15.8906 20.4971 15.8203C20.327 15.8027 20.1946 15.7676 20.1946 15.7441C20.1946 15.7207 20.3774 15.1875 20.6043 14.5605C20.8312 13.9336 21.014 13.4121 21.014 13.4062C21.014 13.3945 20.7619 13.3887 20.4467 13.3887H19.8795V12.0762V10.7637L20.0685 10.6934C20.3333 10.5938 20.743 10.1602 20.8186 9.89648C20.8564 9.76758 20.8879 9.21094 20.8879 8.6543V7.64648H20.5097H20.1316V8.64258C20.1316 9.73828 20.0875 9.9082 19.7849 10.0371C19.4635 10.1719 19.1105 10.0781 18.9592 9.80859C18.8332 9.58008 18.8332 6.63281 18.9592 6.42188C19.1294 6.14062 19.2113 6.12891 21.2535 6.12305H23.157V11.2793ZM27.9724 7.13086C28.3758 7.78125 28.4262 8.00391 28.2435 8.33203C28.1363 8.51953 27.8085 8.70117 27.569 8.70117C27.4934 8.70117 27.3295 8.6543 27.2098 8.60156C26.9387 8.48438 26.7244 8.0918 26.7875 7.83984C26.8379 7.66406 27.5123 6.5332 27.569 6.5332C27.5879 6.5332 27.7707 6.80273 27.9724 7.13086ZM6.48572 10.5293C6.50463 10.6348 6.59287 11.1445 6.67481 11.6602C6.76305 12.1758 6.85129 12.668 6.8702 12.7559L6.90802 12.9199H4.00867C1.2795 12.9199 1.10932 12.9141 1.13453 12.8145C1.14713 12.7617 1.24798 12.1816 1.35513 11.5254L1.55682 10.3418H4.00236H6.4479L6.48572 10.5293ZM29.8948 10.8926C30.1974 11.0391 30.2163 11.1621 30.2163 12.8027C30.2163 14.4434 30.1974 14.5664 29.8948 14.7129C29.6805 14.8125 29.5166 14.8184 29.3023 14.7246C28.9998 14.5957 28.9557 14.4258 28.9557 13.3301V12.334H28.5775H28.1993V13.3418C28.1993 13.8984 28.2308 14.4551 28.2687 14.584C28.3443 14.8477 28.754 15.2812 29.0187 15.3809L29.2078 15.4512V18.4746C29.2078 20.1328 29.1952 21.4805 29.1826 21.4688C29.17 21.457 29.025 21.2344 28.8611 20.9766C28.193 19.9453 27.0459 18.7031 26.2265 18.1348L25.9366 17.9297L25.9303 14.3672V10.8105H27.8212C29.3402 10.8105 29.7499 10.8281 29.8948 10.8926ZM7.04668 13.8105C7.23577 14.8125 7.28619 15.4102 7.25468 16.1426C7.16644 18.0059 6.37227 19.7051 4.97932 21.0176L4.62635 21.3574H4.00236H3.38468L2.91196 20.8945C1.87827 19.8926 1.15974 18.5977 0.863502 17.2148C0.712232 16.4883 0.712232 15.1992 0.869805 14.3086L0.995864 13.623H4.00236H7.00886L7.04668 13.8105ZM19.703 14.9121L19.4067 15.7324H18.997H18.5874L18.2911 14.9121L18.0012 14.0918H18.997H19.9929L19.703 14.9121ZM20.119 16.5C25.1613 17.0039 29.1006 20.666 29.6427 25.3535C29.6805 25.6699 29.712 26.1621 29.712 26.4551V26.9824H18.997H8.28206V26.4551C8.28206 24.5215 8.89974 22.5703 10.0091 20.9766C12.1962 17.8535 16.1544 16.0957 20.119 16.5ZM4.37424 24.5215V26.9824H3.99606H3.61788V24.5215V22.0605H3.99606H4.37424V24.5215ZM5.39531 28.0781C6.10754 28.4531 6.13906 28.4766 6.13906 28.6641V28.8574H3.99606H1.85306V28.6641C1.85306 28.4883 1.89088 28.459 2.59681 28.084L3.33425 27.6914L3.98976 27.6855H4.65157L5.39531 28.0781ZM31.1617 27.7441C31.1617 27.9902 30.7016 28.5059 30.3108 28.6992L30.0587 28.8281H18.997C8.33248 28.8281 7.92909 28.8223 7.71479 28.7168C7.3051 28.5176 6.83238 27.9961 6.83238 27.7441C6.83238 27.7031 10.6204 27.6855 18.997 27.6855C27.4493 27.6855 31.1617 27.7031 31.1617 27.7441Z" fill="black"/>
<path d="M28.5456 1.22461L28.0414 2.00977L27.2094 2.47266C26.7493 2.72461 26.3711 2.94141 26.3711 2.95898C26.3711 2.97656 26.7493 3.19336 27.2094 3.44531L28.0414 3.9082L28.5456 4.69336C28.8229 5.12695 29.0624 5.47852 29.0814 5.47852C29.1003 5.47852 29.3335 5.12695 29.6045 4.69922L30.1024 3.92578L30.947 3.45703C31.4134 3.19922 31.7916 2.97656 31.7916 2.95898C31.7916 2.94141 31.4134 2.71875 30.947 2.46094L30.1024 1.99219L29.6045 1.21875C29.3335 0.791016 29.1003 0.439453 29.0814 0.439453C29.0624 0.439453 28.8229 0.791016 28.5456 1.22461ZM29.3335 2.16797C29.491 2.42578 29.6108 2.53711 29.9386 2.71289C30.1592 2.83008 30.3419 2.94141 30.3419 2.95898C30.3419 2.97656 30.1655 3.08203 29.9575 3.19336C29.7432 3.30469 29.5352 3.45117 29.491 3.51562C29.4469 3.58008 29.3335 3.75 29.2389 3.89062L29.0687 4.14258L28.8229 3.76172C28.6275 3.45703 28.5015 3.33984 28.2305 3.19336C28.0414 3.09375 27.8838 2.98828 27.8838 2.95898C27.8838 2.92969 28.0414 2.82422 28.2305 2.72461C28.5078 2.57812 28.6275 2.46094 28.8166 2.16797C28.9427 1.96289 29.0687 1.81055 29.094 1.82227C29.1192 1.83984 29.2263 1.99219 29.3335 2.16797Z" fill="black"/>
<path d="M11.9089 8.72461L11.4047 9.50977L10.5727 9.97266C10.1126 10.2246 9.73438 10.4414 9.73438 10.459C9.73438 10.4766 10.1126 10.6934 10.5727 10.9453L11.4047 11.4082L11.9089 12.1934C12.1862 12.627 12.4257 12.9785 12.4446 12.9785C12.4635 12.9785 12.6968 12.627 12.9678 12.1992L13.4657 11.4258L14.3103 10.957C14.7767 10.6992 15.1549 10.4766 15.1549 10.459C15.1549 10.4414 14.7767 10.2188 14.3103 9.96094L13.4657 9.49219L12.9678 8.71875C12.6968 8.29102 12.4635 7.93945 12.4446 7.93945C12.4257 7.93945 12.1862 8.29102 11.9089 8.72461ZM12.6968 9.66797C12.8543 9.92578 12.9741 10.0371 13.3018 10.2129C13.5224 10.3301 13.7052 10.4414 13.7052 10.459C13.7052 10.4766 13.5287 10.582 13.3207 10.6934C13.1064 10.8047 12.8984 10.9512 12.8543 11.0156C12.8102 11.0801 12.6968 11.25 12.6022 11.3906L12.432 11.6426L12.1862 11.2617C11.9908 10.957 11.8648 10.8398 11.5937 10.6934C11.4047 10.5938 11.2471 10.4883 11.2471 10.459C11.2471 10.4297 11.4047 10.3242 11.5937 10.2246C11.8711 10.0781 11.9908 9.96094 12.1799 9.66797C12.306 9.46289 12.432 9.31055 12.4572 9.32227C12.4825 9.33984 12.5896 9.49219 12.6968 9.66797Z" fill="black"/>
</svg>
