<svg width="32" height="32" viewBox="0 0 32 32" fill="none" xmlns="http://www.w3.org/2000/svg">
<path d="M26.9173 0.832045C26.6872 0.953138 21.9706 4.259 21.7648 4.44064C21.6437 4.55568 21.4741 4.93107 21.0927 5.95431L20.5901 7.31661H16.3034H12.0228L11.8774 6.93517C11.5384 6.03302 10.8239 4.87052 10.273 4.3256C9.99444 4.04708 9.40108 3.66564 9.11651 3.58087C8.98936 3.54454 8.88643 3.49611 8.88643 3.47189C8.88643 3.44767 8.94092 3.27814 9.00147 3.09044C9.15889 2.64845 9.26788 1.88556 9.21944 1.63732C9.1044 1.0924 8.71085 0.807825 8.08116 0.807825C7.28194 0.807825 6.40401 1.16505 5.85303 1.70997C5.48975 2.07326 5.1628 2.66661 5.0962 3.0965C5.07198 3.23576 5.03565 3.35079 5.01143 3.35079C4.98116 3.35079 4.79952 3.21759 4.60577 3.06017C3.55225 2.1883 2.83174 1.90372 2.44424 2.20646C2.32315 2.30333 2.28682 2.38204 2.28682 2.55763C2.28682 2.86036 2.37764 2.95724 2.78331 3.10861C3.21924 3.26603 4.21827 3.95021 4.22432 4.08341C4.22432 4.10763 4.12139 4.14396 4.0003 4.16818C3.56436 4.24083 2.91046 4.61622 2.58956 4.9674C2.07491 5.53048 1.7419 6.38419 1.7419 7.14708C1.7419 7.77677 2.02647 8.17033 2.57139 8.28536C2.81963 8.3338 3.58253 8.22482 4.02452 8.0674C4.21221 8.00685 4.38174 7.95236 4.40596 7.95236C4.43018 7.95236 4.47862 8.05529 4.51495 8.18243C4.59971 8.467 4.98116 9.06036 5.25967 9.33888C5.85909 9.94435 7.22745 10.7557 8.14776 11.0463C8.38389 11.125 8.5837 11.1977 8.5837 11.2158C8.5837 11.2401 8.70479 12.3117 8.8501 13.6014L9.11046 15.9506L8.6503 16.4168L8.18409 16.8891L7.97823 16.6893C7.41514 16.1383 6.46456 15.7629 5.52003 15.7145C4.4544 15.666 2.57139 15.9506 2.29893 16.1988C1.97198 16.5076 1.89327 16.9193 2.09913 17.2524C2.20206 17.4279 2.83174 17.9729 3.31006 18.2998L3.50987 18.4451L3.0376 18.6934C2.31104 19.0688 1.79034 19.6197 1.39073 20.425C0.652057 21.9326 0.518854 23.6401 0.991119 25.632C1.86905 29.3375 4.96905 31.941 7.47569 31.0752C7.79053 30.9723 7.84503 30.9662 8.03878 31.0449C8.78956 31.3477 9.99444 31.275 10.7937 30.8875L11.0661 30.7543L11.1993 30.8815C11.278 30.9481 11.4355 31.057 11.5505 31.1176C11.7503 31.2266 12.0046 31.2326 16.9694 31.2326C21.9343 31.2326 22.1886 31.2266 22.3884 31.1176C22.5034 31.057 22.6608 30.9541 22.7274 30.8875C22.8607 30.7725 22.8607 30.7725 23.2603 30.8936C24.0534 31.1418 24.6771 31.2266 25.6579 31.2266C26.6751 31.2266 27.2866 31.1358 28.1222 30.8633C29.4239 30.4395 30.98 29.4586 31.2101 28.9197C31.3069 28.6836 31.313 28.2779 31.2222 28.0963C31.1858 28.0236 29.6056 26.4131 27.7105 24.5119L24.2714 21.0608L24.9314 15.0969C25.3007 11.8213 25.5974 9.00587 25.5974 8.84845C25.5974 8.29747 25.3128 7.84337 24.8042 7.5588L24.4773 7.37716L23.0786 7.34689L21.68 7.31661L22.0735 6.23888L22.4732 5.15509L24.78 3.54454C27.4864 1.65548 27.5288 1.62521 27.6015 1.4254C27.6802 1.21349 27.5651 0.947084 27.3472 0.838099C27.1413 0.729115 27.1232 0.729115 26.9173 0.832045ZM8.1962 2.14591C8.14171 2.53947 7.96006 3.0299 7.77237 3.28419C7.4878 3.66564 6.88839 3.96837 6.27081 4.03497L5.98018 4.06525V3.86544C5.98018 3.56876 6.19815 2.92697 6.40401 2.61818C6.67647 2.2004 7.39092 1.84923 7.97217 1.84318L8.23858 1.83712L8.1962 2.14591ZM8.92881 4.62228C9.38897 4.83419 9.75831 5.20353 10.2003 5.88165C10.4728 6.29337 10.945 7.20158 10.945 7.3045C10.945 7.32267 10.612 7.34689 10.2064 7.359C9.38292 7.38927 9.13467 7.46798 8.77745 7.83732C8.38389 8.24298 8.29913 8.67286 8.41417 9.69611C8.4626 10.0715 8.45655 10.0776 8.32335 10.0412C7.98428 9.93829 7.14874 9.50841 6.73096 9.21779C5.90753 8.64259 5.56241 8.21876 5.37471 7.53458C5.30811 7.28634 5.31417 7.25001 5.5503 6.77775C5.82276 6.23888 5.98018 5.70001 5.98018 5.31251V5.06427L6.3919 5.02794C6.87022 4.98556 7.40909 4.80997 7.82686 4.56173C8.18409 4.34982 8.35967 4.35587 8.92881 4.62228ZM4.95088 5.30646C4.95088 5.62736 4.76924 6.17228 4.56944 6.46896C4.29092 6.88068 3.73389 7.17736 3.06788 7.26212L2.75303 7.3045L2.78936 6.92306C2.8378 6.39025 3.16475 5.73029 3.50381 5.49415C3.79444 5.29435 4.47256 5.05216 4.75713 5.04611C4.94483 5.04611 4.95088 5.05216 4.95088 5.30646ZM20.0392 8.81212C19.9483 9.05431 19.5911 10.0291 19.2399 10.9797C18.5073 12.9535 18.6769 12.7598 17.7868 12.5842C16.8362 12.3965 15.813 12.5479 14.7171 13.0262C13.2821 13.6619 12.3376 13.6135 10.6907 12.8143C9.87335 12.4207 9.74014 12.336 9.71592 12.1967C9.69776 12.1119 9.61299 11.3248 9.51612 10.4529C9.33448 8.74552 9.34053 8.59415 9.61299 8.4549C9.73409 8.39435 10.9148 8.37618 14.9835 8.37618H20.2026L20.0392 8.81212ZM24.4167 8.52755C24.5317 8.63654 24.5681 8.73947 24.5681 8.94533C24.5681 9.19962 24.3017 11.7486 24.229 12.1785C24.1987 12.3723 24.1564 12.4026 23.339 12.8022C22.237 13.3289 21.8798 13.4258 21.0261 13.4258C20.3903 13.4258 19.6517 13.2926 19.573 13.1533C19.5487 13.117 20.7839 9.67794 21.2319 8.53966L21.2985 8.37618H22.7819H24.2714L24.4167 8.52755ZM17.7505 13.6135C17.9806 13.6619 18.1804 13.7104 18.1925 13.7285C18.2046 13.7406 17.0542 16.8951 15.6314 20.7338C14.2085 24.5785 13.0157 27.836 12.9673 27.9752C12.9007 28.1932 12.9067 28.2477 12.9915 28.4233C13.1974 28.8168 13.6999 28.7865 13.8876 28.3627C13.936 28.2416 15.147 24.9963 16.5698 21.1516C18.4589 16.0414 19.1794 14.1584 19.2399 14.1705C19.2884 14.1705 19.5487 14.2371 19.8151 14.3098C20.1966 14.4188 20.463 14.449 21.0564 14.449C21.9767 14.449 22.4853 14.3279 23.4056 13.886C23.7567 13.7164 24.0474 13.5893 24.0595 13.6014C24.0716 13.6074 23.9142 15.0727 23.7144 16.8467C23.5206 18.6268 23.3571 20.0981 23.3571 20.1162C23.3571 20.1344 22.7759 19.5774 22.0735 18.869C21.3651 18.1666 20.7233 17.5611 20.6507 17.5248C20.4569 17.4279 19.9847 17.4461 19.7485 17.5551C19.3671 17.7367 18.5013 19.0143 18.1138 19.9709C16.8847 22.9801 17.5144 26.3889 19.7243 28.6836C20.3056 29.283 20.796 29.6947 21.3288 30.0156L21.6921 30.2336H16.8423H11.9925L11.829 30.0762C11.7442 29.9854 11.6716 29.8703 11.6716 29.8158C11.6716 29.7613 11.2659 26.0922 10.7694 21.6662C10.279 17.2342 9.8794 13.6074 9.88546 13.5953C9.89151 13.5893 10.1821 13.7164 10.5333 13.886C11.4415 14.3219 11.9562 14.443 12.8825 14.449C13.7726 14.4551 14.1964 14.3643 15.0925 13.9768C16.0976 13.5408 16.8968 13.4318 17.7505 13.6135ZM5.98624 16.7922C6.39796 16.8709 6.96104 17.1434 7.29405 17.4279C7.57256 17.6641 7.67549 17.9547 7.56046 18.1727C7.44542 18.3906 6.98526 18.5178 6.34346 18.5117C5.83487 18.5117 5.71378 18.4875 5.30206 18.3119C4.7087 18.0576 3.25557 17.0949 3.25557 16.9496C3.25557 16.9375 3.45538 16.8951 3.69756 16.8527C3.9337 16.8164 4.17588 16.774 4.22432 16.7619C4.46046 16.7195 5.69561 16.7377 5.98624 16.7922ZM9.34053 17.985C9.38292 18.3422 9.40108 18.657 9.37686 18.6813C9.3587 18.6994 9.12862 18.8326 8.87432 18.9719C8.35967 19.2443 8.35362 19.2443 8.48682 18.76C8.62608 18.2272 9.14678 17.216 9.23155 17.3008C9.24971 17.319 9.29815 17.6277 9.34053 17.985ZM20.6265 18.8145L20.9474 19.1414L20.6689 19.535C19.1794 21.6178 19.1431 24.4151 20.572 26.5463C21.1532 27.4061 22.2673 28.3264 23.2179 28.7199C24.12 29.0953 24.4954 29.168 25.6276 29.168C26.4935 29.168 26.7296 29.1438 27.1232 29.0348C27.9829 28.7986 28.6732 28.4535 29.4966 27.8481C29.545 27.8117 29.6843 27.9147 29.9083 28.1508C30.3079 28.5686 30.314 28.5443 29.6661 28.9803C28.1222 30.0096 26.2815 30.4274 24.5257 30.1428C22.5216 29.8158 20.8202 28.726 19.7001 27.0549C18.2591 24.8994 18.1138 22.0598 19.3368 19.759C19.6335 19.202 20.1421 18.4936 20.239 18.4875C20.2753 18.4875 20.4509 18.6328 20.6265 18.8145ZM6.10733 19.7772C6.55538 20.0012 7.00948 20.201 7.11846 20.2192L7.31221 20.2555V20.7701C7.31221 21.2303 7.32432 21.2908 7.46358 21.424C7.56046 21.527 7.67549 21.5754 7.8087 21.5754C8.1962 21.5693 8.34151 21.3393 8.34151 20.7096V20.2555L8.63214 20.1828C8.78956 20.1465 9.04385 20.0436 9.20733 19.9588C9.36475 19.868 9.50401 19.8135 9.51612 19.8256C9.52823 19.8377 9.78858 22.0961 10.0913 24.8389C10.5394 28.8531 10.6302 29.8401 10.5696 29.8824C10.2608 30.0822 9.79463 30.1912 9.24971 30.1973C8.74112 30.2033 8.62608 30.1852 8.2628 30.0277C8.03878 29.9369 7.8087 29.8703 7.74815 29.8885C7.69366 29.9127 7.45753 29.9975 7.22139 30.0762C6.1921 30.4455 5.10225 30.1125 4.04268 29.1014C3.40088 28.4959 2.99522 27.9147 2.55928 27.0125C1.94776 25.741 1.71163 24.6027 1.76006 23.2102C1.79639 22.193 1.91749 21.6481 2.2626 20.9336C2.50479 20.4371 2.94678 19.9104 3.2919 19.6924C3.77022 19.4018 4.03663 19.3352 4.68448 19.3533L5.28995 19.3654L6.10733 19.7772ZM22.5034 22.5926C21.462 22.5986 20.6023 22.5926 20.5841 22.5744C20.5235 22.5139 20.6991 21.7328 20.8808 21.2666C20.9837 21.0063 21.2017 20.5824 21.3651 20.3281L21.6739 19.8619L23.0302 21.2182L24.3864 22.5744L22.5034 22.5926ZM23.0241 24.966L21.6921 26.3041L21.5286 26.1043C21.1532 25.6623 20.7052 24.6027 20.6023 23.9186L20.5599 23.634H22.455H24.3562L23.0241 24.966ZM25.0827 28.1629C25.0706 28.1811 24.8042 28.1326 24.4954 28.06C23.8778 27.9147 22.9636 27.5029 22.6306 27.2123L22.4187 27.0307L23.7507 25.6986L25.0827 24.3606L25.1009 26.2436C25.1069 27.285 25.1009 28.1447 25.0827 28.1629ZM28.6247 27.2123C28.1827 27.5938 27.1776 28.0115 26.4026 28.1447L26.1423 28.1871V26.2557V24.3303L27.4925 25.6805L28.8366 27.0307L28.6247 27.2123Z" fill="black"/>
<path d="M8.61406 5.90656C8.42637 6.01555 8.34766 6.14875 8.34766 6.34855C8.34766 6.55441 8.43242 6.68762 8.62617 6.79055C8.82598 6.89953 8.9834 6.87531 9.16504 6.71789C9.60703 6.33644 9.1166 5.61594 8.61406 5.90656Z" fill="black"/>
<path d="M7.01511 7.5049C6.50651 7.92873 7.11803 8.66135 7.63874 8.24963C7.75378 8.15881 7.79616 8.06799 7.79616 7.92268C7.79616 7.6381 7.74772 7.53518 7.54792 7.4383C7.31178 7.31115 7.22702 7.32326 7.01511 7.5049Z" fill="black"/>
<path d="M12.6391 15.575C12.179 15.7203 11.7552 16.1017 11.5372 16.5801C11.2526 17.2037 11.404 17.9908 11.9005 18.5055C12.2395 18.8566 12.5362 18.9898 13.069 19.0201C13.4747 19.0443 13.5776 19.0262 13.8622 18.899C14.2678 18.7113 14.613 18.3783 14.7704 18.0211C15.2911 16.8344 14.4495 15.5084 13.1901 15.5265C12.9721 15.5265 12.7239 15.5508 12.6391 15.575ZM13.5655 16.6224C13.8622 16.7738 13.9954 17.3006 13.8259 17.6336C13.5534 18.1543 12.7421 18.1361 12.4878 17.6033C12.3727 17.3551 12.3727 17.1916 12.4938 16.9373C12.6755 16.5558 13.1598 16.4166 13.5655 16.6224Z" fill="black"/>
<path d="M12.0454 20.7467C11.7426 21.0676 11.9667 21.5762 12.4026 21.5762C12.6872 21.5762 12.8809 21.3703 12.8809 21.0857C12.8809 20.6559 12.336 20.4379 12.0454 20.7467Z" fill="black"/>
<path d="M12.5379 23.3078C12.4108 23.435 12.3926 23.5016 12.4229 23.6832C12.5016 24.1797 13.1192 24.3008 13.3432 23.8649C13.6157 23.3442 12.9557 22.8901 12.5379 23.3078Z" fill="black"/>
<path d="M3.88359 20.5464C3.19336 20.94 2.76953 22.0359 2.76953 23.4527C2.76953 24.1853 2.83613 24.7242 2.9875 25.2509C3.1207 25.7293 3.5082 25.8927 3.8291 25.6203C4.02285 25.4507 4.03496 25.257 3.88359 24.7242C3.73828 24.1853 3.73223 23.0289 3.87754 22.4839C4.06523 21.8058 4.24082 21.4789 4.51328 21.3396C4.90684 21.1398 4.98555 20.7584 4.68887 20.4859C4.51328 20.3164 4.24082 20.3345 3.88359 20.5464Z" fill="black"/>
</svg>
