<svg width="30" height="26" viewBox="0 0 30 26" fill="none" xmlns="http://www.w3.org/2000/svg">
<path d="M10.5275 1.14375C10.3123 1.35898 10.318 1.55723 10.5332 1.9707C10.8051 2.48613 10.7598 2.87695 10.3689 3.41504C10.1311 3.74922 10.0234 4.14004 10.0234 4.69512C10.0234 5.27285 10.1707 5.71465 10.4822 6.04316C10.6578 6.23574 10.7258 6.27539 10.924 6.27539C11.2016 6.27539 11.4225 6.08848 11.4734 5.8166C11.5018 5.66934 11.4678 5.56172 11.3318 5.32383C11.1846 5.06328 11.1562 4.95566 11.1562 4.64414C11.1562 4.31562 11.1789 4.24766 11.3602 3.98145C11.7453 3.4207 11.8076 3.22812 11.8076 2.56543C11.8076 2.00469 11.7963 1.94805 11.6207 1.59121C11.3941 1.13242 11.2186 0.979492 10.9184 0.979492C10.7484 0.979492 10.6578 1.01914 10.5275 1.14375Z" fill="black"/>
<path d="M14.4885 1.14471C14.2732 1.35994 14.2789 1.55818 14.4941 1.97166C14.766 2.48709 14.7207 2.87791 14.3299 3.416C14.092 3.75018 13.9844 4.141 13.9844 4.70174C13.9844 5.85154 14.7037 6.65018 15.2701 6.12342C15.4854 5.91951 15.4967 5.67596 15.2928 5.32478C15.1455 5.06424 15.1172 4.95662 15.1172 4.6451C15.1172 4.31658 15.1398 4.24861 15.3211 3.9824C15.7063 3.42166 15.7686 3.22908 15.7686 2.56639C15.7686 2.00564 15.7572 1.949 15.5816 1.59217C15.3551 1.13338 15.1795 0.980449 14.8793 0.980449C14.7094 0.980449 14.6188 1.0201 14.4885 1.14471Z" fill="black"/>
<path d="M18.4572 1.14375C18.242 1.35898 18.2477 1.55723 18.4629 1.9707C18.7348 2.48613 18.6895 2.87695 18.2986 3.41504C18.0607 3.74922 17.9531 4.14004 17.9531 4.69512C17.9531 5.27285 18.1004 5.71465 18.4119 6.04316C18.5875 6.23574 18.6555 6.27539 18.8537 6.27539C19.1313 6.27539 19.3521 6.08848 19.4031 5.8166C19.4314 5.66934 19.3975 5.56172 19.2615 5.32383C19.1143 5.06328 19.0859 4.95566 19.0859 4.64414C19.0859 4.31562 19.1086 4.24766 19.2898 3.98145C19.675 3.4207 19.7373 3.22812 19.7373 2.56543C19.7373 2.00469 19.726 1.94805 19.5504 1.59121C19.3238 1.13242 19.1482 0.979492 18.848 0.979492C18.6781 0.979492 18.5875 1.01914 18.4572 1.14375Z" fill="black"/>
<path d="M18.3184 7.80469C18.2901 7.81602 18.1428 7.83867 17.9956 7.86133C17.803 7.88399 17.6048 7.98027 17.2706 8.20684C16.7098 8.58633 16.5456 8.65996 15.8942 8.80156C15.6167 8.86387 15.2938 8.96016 15.1749 9.02246C14.92 9.15273 14.6255 9.49258 14.5801 9.71348C14.5462 9.86074 14.5235 9.87207 14.2403 9.87207C13.8551 9.87207 13.7305 9.92305 13.1245 10.3082C12.7167 10.5631 12.5524 10.6311 12.1899 10.6934C11.4762 10.8236 11.4536 10.818 11.4083 10.5348C11.3516 10.2063 11.193 9.91172 10.9268 9.64551C10.621 9.33965 10.3717 9.22637 9.65807 9.0791C9.13132 8.96582 8.98405 8.90918 8.62721 8.67695C7.90788 8.20684 7.78327 8.15586 7.35846 8.18418C7.01862 8.20117 6.928 8.23516 6.53151 8.48438C5.85182 8.90918 5.73854 8.94883 5.07585 9.04512C4.15827 9.18106 4.011 9.28301 3.5862 10.0986C3.45026 10.3648 3.303 10.6254 3.26335 10.6764C3.21803 10.7273 2.89518 10.9369 2.53835 11.1352C1.71706 11.5939 1.62643 11.7186 1.49616 12.6191C1.39987 13.2875 1.36022 13.3951 0.929754 14.0805C0.697527 14.4543 0.646551 14.5789 0.629558 14.8621C0.601238 15.2473 0.652215 15.4059 0.992058 15.9383C1.36022 16.516 1.42253 16.6633 1.53014 17.1787C1.58678 17.4449 1.6321 17.6941 1.63776 17.7281C1.63776 17.7791 1.52448 17.8018 1.24694 17.8018C0.918426 17.8018 0.827801 17.8244 0.703191 17.9264C0.402996 18.1926 0.402996 18.1926 1.67741 21.6193C2.68561 24.3324 2.87819 24.8025 3.01413 24.9045L3.17272 25.0234H15.0049H26.8372L26.9958 24.9045C27.1317 24.8025 27.3186 24.3381 28.3098 21.676C29.5729 18.2889 29.6012 18.1813 29.318 17.9377C29.1764 17.8188 29.1028 17.8018 28.678 17.8018C28.4174 17.8018 28.2022 17.7791 28.2022 17.7508C28.2022 17.7225 28.3721 17.4789 28.576 17.207C29.1821 16.4027 29.2048 16.2781 28.9329 15.3662C28.8366 15.0434 28.7573 14.6979 28.7573 14.6016C28.7573 14.4996 28.8366 14.1768 28.9329 13.8766C29.2104 13.0156 29.1708 12.8117 28.576 12.0301C28.2305 11.5713 28.1569 11.3957 27.9813 10.6367C27.8057 9.8834 27.4829 9.55488 26.7862 9.41895C26.0725 9.27168 25.795 9.16406 25.3192 8.84688C24.7528 8.46172 24.3053 8.32012 23.8692 8.37676C23.4784 8.42773 23.3991 8.46172 22.8214 8.84688C22.2549 9.2207 22.0171 9.30567 21.8698 9.17539C21.6885 9.0168 21.4167 8.91484 20.9126 8.80156C20.2612 8.65996 20.0969 8.59199 19.5362 8.20684C19.202 7.98027 19.0038 7.88399 18.8112 7.86133C18.6639 7.83867 18.5053 7.81602 18.46 7.80469C18.4147 7.79336 18.3524 7.79336 18.3184 7.80469ZM19.1171 9.28301C19.6778 9.65117 19.7458 9.67949 20.5274 9.87207L21.1505 10.0193L21.2921 10.6424C21.462 11.3504 21.5356 11.509 21.9378 12.0527C22.102 12.268 22.2549 12.4832 22.2776 12.5172C22.3003 12.5568 22.238 12.84 22.136 13.1402C21.9038 13.8709 21.9038 14.2107 22.136 14.9641L22.3173 15.5418L21.9208 16.0799C21.5356 16.601 21.4676 16.7426 21.2751 17.4902L21.2014 17.7734L19.7174 17.7904C18.9018 17.7961 18.2335 17.7848 18.2335 17.7621C18.2335 17.7338 18.2731 17.4506 18.3184 17.1221C18.3921 16.6066 18.4374 16.4764 18.6413 16.1309C19.1624 15.2529 19.2077 15.1396 19.185 14.7658C19.1624 14.4146 19.1227 14.3297 18.579 13.4688C18.4544 13.2648 18.3637 13.0043 18.2674 12.5625C18.1202 11.8488 18.0296 11.6506 17.7237 11.3447C17.4178 11.0389 17.1686 10.9256 16.4776 10.7783C16.1491 10.7104 15.8092 10.6141 15.7243 10.5688C15.577 10.4951 15.5657 10.4668 15.5997 10.2799C15.6223 10.1666 15.6563 10.0533 15.6733 10.0363C15.696 10.0137 15.9622 9.9457 16.2737 9.87207C16.9704 9.71348 17.129 9.65117 17.701 9.27734C17.9559 9.11309 18.2108 8.96582 18.2674 8.94883C18.46 8.90352 18.6469 8.97715 19.1171 9.28301ZM7.87389 9.54356C8.4403 9.91172 8.84811 10.0816 9.42585 10.1893C10.1282 10.3195 10.2188 10.4102 10.3661 11.1012C10.5077 11.7979 10.604 12.0414 10.9551 12.5965C11.1251 12.8684 11.2667 13.1176 11.2667 13.1459C11.2667 13.1799 11.1534 13.3838 11.0174 13.5934C10.604 14.2447 10.5303 14.4316 10.4284 15.1227L10.3321 15.774L9.828 16.0289C9.15964 16.3631 8.84245 16.6689 8.5196 17.2977L8.25905 17.8018H5.65925H3.05944L2.91218 17.6715C2.79323 17.5695 2.74225 17.4336 2.62897 16.9182C2.48737 16.2498 2.39108 16.0176 2.00026 15.4059C1.86432 15.1963 1.75104 14.9924 1.75104 14.9584C1.75104 14.9244 1.89264 14.6752 2.06257 14.4033C2.44206 13.8029 2.47038 13.718 2.59499 12.9477L2.69128 12.3359L3.2237 12.0527C3.90339 11.6959 4.16393 11.4354 4.50378 10.7727L4.78132 10.2402L5.29108 10.1666C6.01608 10.059 6.28229 9.9627 6.83737 9.61719C7.10925 9.44727 7.36979 9.30567 7.42077 9.30567C7.47175 9.30567 7.67565 9.41328 7.87389 9.54356ZM24.7755 9.84375C25.3249 10.2119 25.4042 10.2459 26.1915 10.4328L26.8089 10.5857L26.9561 11.2031C27.126 11.9168 27.1997 12.0754 27.6018 12.6191C27.7661 12.8344 27.919 13.0496 27.9417 13.0836C27.9643 13.1232 27.902 13.4064 27.8001 13.7066C27.5678 14.4373 27.5678 14.7771 27.8001 15.5305L27.9813 16.1082L27.6698 16.5217C27.279 17.0371 27.1544 17.258 27.0637 17.5639L26.9958 17.8018L24.6962 17.7904C22.4305 17.7734 22.3965 17.7734 22.4135 17.6602C22.4702 17.3033 22.5778 17.0881 22.912 16.6463C23.518 15.842 23.5407 15.7117 23.2688 14.7998C23.1725 14.477 23.0932 14.1314 23.0932 14.0352C23.0932 13.9332 23.1725 13.6104 23.2688 13.3102C23.5407 12.4605 23.5067 12.2566 22.9686 11.543C22.6118 11.0672 22.5042 10.8689 22.4362 10.5688L22.3852 10.3422L22.6401 10.2516C22.7817 10.1949 23.0989 10.0193 23.3538 9.84941C23.6087 9.68516 23.8522 9.53223 23.8975 9.51523C24.0674 9.44727 24.328 9.54356 24.7755 9.84375ZM14.6708 11.2428C15.2372 11.6109 15.645 11.7809 16.2227 11.8885C16.9251 12.0188 17.0157 12.1094 17.163 12.8004C17.3046 13.4971 17.3952 13.7236 17.752 14.29C17.9219 14.5619 18.0635 14.8111 18.0635 14.8451C18.0635 14.8791 17.9503 15.083 17.8143 15.2926C17.3952 15.9439 17.3272 16.1309 17.2253 16.8219L17.129 17.4789L16.7891 17.6432L16.4493 17.8018H13.0112C11.1137 17.8018 9.56745 17.7791 9.56745 17.7508C9.56745 17.7281 9.62409 17.6205 9.69772 17.5129C9.78268 17.3826 9.99792 17.224 10.3604 17.0314C11.3063 16.516 11.3856 16.4027 11.5216 15.4455C11.5952 14.9018 11.6348 14.7828 11.8444 14.4316C12.3655 13.5537 12.4108 13.4404 12.3882 13.0666C12.3712 12.7834 12.3258 12.6531 12.1276 12.3303C11.9973 12.1094 11.8897 11.9168 11.8897 11.8998C11.8897 11.8828 12.0596 11.8488 12.2749 11.8262C12.796 11.7695 13.0735 11.6676 13.6399 11.3107C13.9061 11.1465 14.1667 11.0049 14.2176 11.0049C14.2686 11.0049 14.4725 11.1125 14.6708 11.2428ZM28.0889 18.9742C28.0889 19.0025 27.885 19.552 27.6415 20.209L27.1997 21.3984L19.6835 21.4268L12.1616 21.4551L12.0257 21.6137C11.7538 21.9309 11.9124 22.384 12.3315 22.5029C12.4674 22.5369 14.954 22.5596 19.6608 22.5596H26.7749L26.6219 22.9674C26.537 23.1939 26.4237 23.4998 26.3671 23.6471L26.2651 23.9189H15.0049H3.74479L3.64284 23.6471C3.5862 23.4998 3.47292 23.1939 3.38796 22.9674L3.23503 22.5596H5.25143C6.46354 22.5596 7.35846 22.5369 7.48307 22.5029C7.90221 22.384 8.06081 21.9309 7.78893 21.6137L7.653 21.4551L5.22878 21.4268L2.81022 21.3984L2.36843 20.209C2.12487 19.552 1.92096 19.0025 1.92096 18.9742C1.92096 18.9516 7.81159 18.9346 15.0049 18.9346C22.204 18.9346 28.0889 18.9516 28.0889 18.9742Z" fill="black"/>
<path d="M19.9491 12.3521C19.8811 12.4031 19.7962 12.5334 19.7565 12.6297C19.6263 13.0092 20.0058 13.417 20.4192 13.3377C20.8214 13.264 20.98 12.7146 20.6854 12.4088C20.5042 12.2219 20.153 12.1935 19.9491 12.3521Z" fill="black"/>
<path d="M6.92697 11.34C6.859 11.3684 6.75138 11.4646 6.67775 11.5553C6.41154 11.8951 6.67208 12.4219 7.10822 12.4219C7.36876 12.4219 7.5047 12.3426 7.61232 12.1387C7.73693 11.8951 7.71427 11.7082 7.54435 11.5156C7.37443 11.3344 7.11954 11.2607 6.92697 11.34Z" fill="black"/>
<path d="M6.92891 13.8886C6.75898 13.9622 6.56641 14.2227 6.56641 14.387C6.56641 14.4606 6.60605 14.5966 6.65137 14.6872C6.90059 15.1686 7.60859 15.027 7.68223 14.4833C7.70488 14.285 7.68789 14.2227 7.55195 14.0698C7.37637 13.8829 7.12148 13.8093 6.92891 13.8886Z" fill="black"/>
<path d="M4.35215 15.5297C3.85372 16.0338 4.59571 16.7701 5.13379 16.3057C5.26407 16.1924 5.29239 16.1244 5.29239 15.9035C5.29239 15.6826 5.26407 15.6146 5.13379 15.5014C4.90157 15.3031 4.57305 15.3144 4.35215 15.5297Z" fill="black"/>
<path d="M24.9393 12.0135C24.6561 12.2401 24.6278 12.6309 24.877 12.8575C25.2678 13.22 25.8229 12.9594 25.8229 12.4213C25.8229 12.1551 25.5567 11.9116 25.2735 11.9116C25.1545 11.9116 25.0016 11.9569 24.9393 12.0135Z" fill="black"/>
<path d="M25.058 15.673C24.8767 15.8543 24.8314 16.0639 24.9164 16.2791C25.0127 16.5113 25.1826 16.6133 25.4601 16.6133C25.6584 16.6133 25.7263 16.585 25.8453 16.4377C25.9416 16.3301 25.9925 16.1941 25.9925 16.0752C25.9925 15.9562 25.9416 15.8203 25.8453 15.7127C25.7207 15.5654 25.6584 15.5371 25.4488 15.5371C25.2562 15.5371 25.1599 15.5711 25.058 15.673Z" fill="black"/>
<path d="M14.2649 13.0953C13.7891 13.5711 14.4518 14.3187 14.9899 13.9166C15.4203 13.5937 15.2051 12.931 14.667 12.931C14.4801 12.931 14.3951 12.965 14.2649 13.0953Z" fill="black"/>
<path d="M13.5615 15.3783C13.3633 15.4859 13.25 15.6728 13.25 15.8937C13.25 16.4714 14.0486 16.6527 14.2979 16.1316C14.4055 15.8994 14.4055 15.8541 14.2979 15.6502C14.1506 15.3726 13.8051 15.2423 13.5615 15.3783Z" fill="black"/>
<path d="M9.5045 21.5902C9.00606 22.0943 9.74805 22.8307 10.2861 22.3662C10.4164 22.2529 10.4447 22.185 10.4447 21.9641C10.4447 21.7432 10.4164 21.6752 10.2861 21.5619C10.0539 21.3637 9.7254 21.375 9.5045 21.5902Z" fill="black"/>
</svg>
