<svg width="32" height="32" viewBox="0 0 32 32" fill="none" xmlns="http://www.w3.org/2000/svg">
<g clip-path="url(#clip0_5316_35303)">
<path d="M15.0305 0.535353C10.5992 0.995508 7.04922 4.14395 6.17422 8.38828C5.97422 9.36309 5.97422 11.0221 6.17422 11.9727C6.43672 13.2502 6.96797 14.5156 7.66172 15.5146C7.84297 15.7871 7.99922 16.0172 7.99922 16.0354C7.99922 16.0475 7.45547 16.0596 6.78672 16.0596C5.69922 16.0596 5.56172 16.0717 5.43047 16.1746C5.23047 16.332 5.23047 16.6953 5.43047 16.8527C5.56172 16.9557 5.70547 16.9678 7.21172 16.9678H8.84297L9.33672 17.3916C10.2492 18.1727 11.3742 18.8447 12.393 19.2141L12.943 19.4139L12.9242 19.7469L12.9055 20.0859L12.4055 20.2494C11.4617 20.5521 10.9305 20.6309 9.78047 20.6309C8.64922 20.6248 8.40547 20.5945 6.34297 20.1465C4.74297 19.8014 4.14922 19.7348 3.06172 19.7711C2.39297 19.7893 1.94922 19.8377 1.63672 19.9164C1.32422 20.0012 1.16797 20.0133 1.15547 19.9709C1.14297 19.9346 1.08672 19.3836 1.03047 18.7479C0.930469 17.6701 0.930469 17.5793 1.02422 17.3977C1.23047 17.0162 1.40547 16.9678 2.59922 16.9678C3.58672 16.9678 3.68047 16.9557 3.83672 16.8406C4.06172 16.6711 4.06172 16.3563 3.83672 16.1867C3.68047 16.0717 3.58672 16.0596 2.55547 16.0596C1.58672 16.0596 1.39922 16.0777 1.09922 16.1807C0.649219 16.3502 0.236719 16.768 0.0867188 17.2281L-0.0195312 17.5672L0.555469 23.5795C0.961719 27.7754 1.17422 29.6947 1.24922 29.9369C1.44922 30.5666 1.88047 31.0146 2.59297 31.3295L2.90547 31.4688H14.8117H26.718L27.1242 31.2811C27.743 30.9965 27.968 30.7361 28.7367 29.4283L29.4367 28.2477L30.1117 28.2174C30.8992 28.1871 31.2305 28.0721 31.568 27.7027C32.168 27.0609 32.1242 26.1285 31.4617 25.5654C31.043 25.2082 30.9867 25.2021 29.0305 25.2021H27.2492L27.018 24.9539C26.893 24.8207 26.6805 24.6572 26.5555 24.5906C26.368 24.4998 26.2992 24.4211 26.2492 24.2455C26.118 23.7611 25.7367 23.3918 25.2367 23.2586C25.0555 23.2162 24.9617 23.1436 24.8867 23.0043C24.618 22.5139 24.1055 22.1748 23.6242 22.1748C23.518 22.1748 23.3492 22.0658 23.118 21.8539C22.7242 21.4906 22.3555 21.3574 21.9117 21.418C21.6867 21.4543 21.618 21.4361 21.4617 21.309C21.0242 20.9578 20.6242 20.8609 20.1242 20.9881C19.793 21.0729 19.768 21.0668 19.4617 20.9275C19.0367 20.7338 18.5867 20.7338 18.1617 20.9275C17.8555 21.0668 17.8242 21.0729 17.4992 20.9881C16.9992 20.8609 16.593 20.9639 16.1617 21.309C16.0055 21.4361 15.9367 21.4543 15.7117 21.418C15.2742 21.3574 14.893 21.4906 14.5367 21.8297C14.2867 22.0658 14.1555 22.1445 13.9367 22.1748C13.7805 22.199 13.6492 22.2172 13.6492 22.2111C13.6242 22.193 13.8805 19.7227 13.9055 19.6984C13.918 19.6863 14.168 19.7166 14.4492 19.759C15.2242 19.8861 16.943 19.868 17.718 19.7287C20.8055 19.1777 23.343 17.3795 24.868 14.6609C25.2617 13.9707 25.1867 13.5771 24.6742 13.5771C24.4055 13.5771 24.3492 13.6377 23.968 14.3461C23.5555 15.109 23.0055 15.7992 22.2367 16.5137C21.2367 17.4521 20.0742 18.1242 18.768 18.5359C17.7617 18.8508 17.2055 18.9295 15.9992 18.9295C14.7617 18.9295 14.2055 18.8447 13.1367 18.5057C11.793 18.0818 10.718 17.4279 9.62422 16.3623C8.24922 15.0363 7.46172 13.6135 7.08047 11.7789C6.93047 11.0342 6.93047 9.33887 7.08047 8.59414C7.46172 6.75957 8.24922 5.33672 9.62422 4.01074C10.9742 2.70293 12.3367 1.98242 14.2305 1.57676C15.118 1.38906 16.8742 1.38906 17.793 1.57676C18.9805 1.825 20.0242 2.24883 21.0617 2.91484C21.7242 3.33262 23.043 4.59805 23.4617 5.20957C24.8555 7.25606 25.3242 9.44785 24.8992 11.8939C24.868 12.0816 24.8867 12.1422 25.018 12.2693C25.2242 12.4691 25.493 12.4752 25.668 12.2875C25.993 11.9484 26.0867 9.65977 25.8242 8.38828C25.018 4.46484 21.9305 1.46172 17.9055 0.680664C17.293 0.55957 15.6055 0.474806 15.0305 0.535353ZM4.67422 20.752C4.99922 20.8064 5.75547 20.9518 6.36172 21.085C8.00547 21.4361 8.50547 21.5088 9.46797 21.5512C10.4555 21.5875 11.3805 21.4846 12.268 21.2363C12.5492 21.1576 12.7867 21.0971 12.793 21.1031C12.7992 21.1092 12.6242 22.9982 12.3992 25.293C12.143 27.9691 11.9617 29.5615 11.9055 29.7189C11.7992 29.9914 11.5117 30.3063 11.2242 30.4576C11.0492 30.5484 10.643 30.5605 7.16797 30.5787C4.51797 30.5908 3.23047 30.5727 3.05547 30.5303C2.72422 30.4395 2.28047 30.0459 2.16172 29.725C2.09922 29.5615 1.93047 28.0842 1.68672 25.5352C1.48047 23.3676 1.29297 21.4604 1.27422 21.2908L1.23672 20.976L1.45547 20.9094C2.23047 20.6611 3.64922 20.5945 4.67422 20.752ZM19.1742 21.8055C19.5242 21.975 19.8055 22.0053 20.1867 21.9084C20.5617 21.8115 20.6242 21.8236 20.9367 22.0598C21.243 22.2838 21.5805 22.3807 21.943 22.3322C22.243 22.2898 22.243 22.2959 22.5742 22.6107C22.893 22.9256 23.2305 23.083 23.5555 23.083C23.7742 23.083 23.9242 23.192 24.0617 23.4402C24.218 23.7369 24.4805 23.9488 24.8555 24.0881C25.2555 24.2273 25.2805 24.2516 25.3742 24.5482C25.418 24.6936 25.5055 24.8813 25.568 24.9721C25.6367 25.0568 25.6867 25.1477 25.6867 25.1658C25.6867 25.184 22.918 25.2021 19.5305 25.2021H13.3742V25.0205C13.3742 24.6633 13.5055 23.5916 13.5742 23.4281C13.6555 23.2223 13.8492 23.083 14.0555 23.083C14.393 23.083 14.7242 22.9256 15.0492 22.6107C15.3805 22.2959 15.3805 22.2898 15.6805 22.3322C16.043 22.3807 16.3805 22.2838 16.6867 22.0598C16.9992 21.8236 17.0617 21.8115 17.4367 21.9084C17.818 22.0053 18.1055 21.975 18.4367 21.8055C18.718 21.6662 18.8867 21.6662 19.1742 21.8055ZM30.843 26.2436C31.0555 26.4252 31.118 26.7764 30.968 26.9943C30.743 27.3334 30.9117 27.3213 24.8492 27.3213H19.2555L19.1305 27.4787C18.9617 27.6906 18.968 27.8238 19.1492 28.0297L19.2992 28.1992L23.8305 28.2295L28.3617 28.2598L27.8367 29.1377C27.2805 30.0822 26.9742 30.4213 26.5867 30.5242C26.418 30.5727 24.1742 30.5908 19.4242 30.5908H12.5117L12.6992 30.2275C12.8555 29.9248 12.8992 29.725 12.9742 29.059C13.018 28.623 13.0617 28.2537 13.0617 28.2477C13.0617 28.2416 14.0617 28.2234 15.2867 28.2174L17.5117 28.1992L17.6305 28.0539C17.768 27.8844 17.7867 27.6361 17.6617 27.4666C17.5742 27.3576 17.4555 27.3516 15.3617 27.3213C13.2055 27.291 13.1555 27.291 13.168 27.1699C13.1742 27.1033 13.1992 26.8369 13.218 26.5766L13.2617 26.1104H21.968H30.6805L30.843 26.2436Z" fill="black"/>
<path d="M2.825 22.8585C2.70625 22.9796 2.6875 23.0704 2.6875 23.5427C2.6875 24.0391 2.7 24.1057 2.83125 24.2208C2.9875 24.3661 3.1875 24.3903 3.375 24.2934C3.7125 24.1179 3.7125 22.9554 3.375 22.7798C3.18125 22.6768 2.96875 22.7132 2.825 22.8585Z" fill="black"/>
<path d="M10.675 22.8035C10.5188 22.9186 10.4375 23.1668 10.4375 23.5361C10.4375 24.075 10.6063 24.3475 10.9438 24.3535C11.0312 24.3535 11.1625 24.299 11.2375 24.2324C11.3625 24.1174 11.375 24.0447 11.375 23.5361C11.375 23.0275 11.3625 22.9549 11.2375 22.8398C11.0813 22.7006 10.8313 22.6824 10.675 22.8035Z" fill="black"/>
<path d="M5.6875 23.5664C5.6125 23.6391 5.5625 23.7662 5.5625 23.8934C5.5625 24.0629 5.6125 24.1477 5.85 24.3414C6.53125 24.9227 7.53125 24.9227 8.2125 24.3414C8.4625 24.1355 8.5 24.0689 8.5 23.8691C8.5 23.4635 8.05625 23.3061 7.70625 23.5906C7.44375 23.8025 7.28125 23.8691 7.03125 23.8691C6.78125 23.8691 6.61875 23.8025 6.35625 23.5906C6.1375 23.415 5.85625 23.4029 5.6875 23.5664Z" fill="black"/>
<path d="M15.2492 2.68478C14.293 2.7756 13.4055 3.02384 12.5305 3.44767C10.9867 4.19845 9.81172 5.33673 9.03672 6.83829C8.48672 7.90392 8.23047 8.96349 8.23047 10.1865C8.23047 11.0402 8.33047 11.676 8.57422 12.4268C9.21172 14.3945 10.6117 15.9869 12.4992 16.9072C14.2055 17.7367 16.143 17.9426 17.968 17.4824C20.7492 16.7801 22.9305 14.5883 23.593 11.8395C23.9867 10.1986 23.743 8.30353 22.9305 6.77169C21.4742 4.01075 18.4055 2.37599 15.2492 2.68478ZM15.5055 3.84122C15.5055 4.24083 15.6305 4.51329 15.8305 4.5799C16.2305 4.71915 16.4867 4.42853 16.493 3.84122C16.4992 3.60509 16.5117 3.58693 16.6742 3.58693C16.993 3.58693 17.968 3.817 18.468 4.0047C19.0367 4.21661 19.693 4.57384 20.1742 4.93107L20.5055 5.17931L20.2242 5.45782C19.8992 5.77872 19.843 6.03907 20.0617 6.25099C20.2805 6.4629 20.5492 6.40841 20.8805 6.09357L21.168 5.82111L21.4242 6.142C21.793 6.60822 22.1617 7.24396 22.3805 7.79493C22.5867 8.30353 22.8117 9.2299 22.8117 9.5629V9.76271H22.4055C21.9492 9.76271 21.7492 9.8838 21.7492 10.1623C21.7492 10.5014 22.0055 10.6709 22.5367 10.6709C22.793 10.6709 22.8117 10.683 22.8117 10.8344C22.8117 11.1492 22.5742 12.0938 22.3805 12.5781C22.1617 13.1291 21.793 13.7649 21.4242 14.2311L21.168 14.552L20.8805 14.2795C20.5492 13.9647 20.2805 13.9102 20.0617 14.1221C19.843 14.334 19.8992 14.5943 20.2242 14.9152L20.5055 15.1938L20.1742 15.442C19.693 15.7992 19.0367 16.1565 18.468 16.3684C17.968 16.5561 16.993 16.7861 16.6742 16.7861C16.5117 16.7861 16.4992 16.768 16.493 16.5258C16.4867 15.9445 16.2305 15.6539 15.8305 15.7932C15.6305 15.8598 15.5055 16.1322 15.5055 16.5258C15.4992 16.768 15.4867 16.7861 15.3305 16.7861C15.0055 16.7861 14.0305 16.5561 13.5305 16.3684C12.9617 16.1565 12.3055 15.7992 11.8242 15.442L11.493 15.1938L11.7742 14.9152C12.0992 14.5943 12.1555 14.334 11.9367 14.1221C11.718 13.9102 11.4492 13.9647 11.118 14.2795L10.8305 14.552L10.5742 14.2311C10.2055 13.7649 9.83672 13.1291 9.61797 12.5781C9.42422 12.0938 9.18672 11.1492 9.18672 10.8344C9.18672 10.683 9.20547 10.6709 9.46172 10.6709C9.99297 10.6709 10.2492 10.5014 10.2492 10.1623C10.2492 9.8838 10.0492 9.76271 9.59297 9.76271H9.18672V9.5629C9.18672 9.22384 9.41172 8.29747 9.61797 7.78888C9.82422 7.26818 10.2805 6.48712 10.6242 6.06935L10.8305 5.82111L11.118 6.09357C11.4492 6.40841 11.718 6.4629 11.9367 6.25099C12.1555 6.03907 12.0992 5.77872 11.7742 5.45782L11.493 5.17931L11.8242 4.93107C12.3055 4.57384 12.9617 4.21661 13.5305 4.0047C14.0492 3.8049 14.943 3.59904 15.2992 3.59298C15.493 3.58693 15.4992 3.59298 15.5055 3.84122Z" fill="black"/>
<path d="M15.7062 5.66875L15.5312 5.81406V8.08457C15.5312 10.234 15.5375 10.3611 15.65 10.4822C15.7313 10.567 15.8438 10.6094 15.9938 10.6094C16.2063 10.6094 16.3125 10.5246 17.6125 9.25918C18.8063 8.09668 19 7.88477 19 7.72734C19 7.49727 18.775 7.2793 18.5312 7.2793C18.3875 7.2793 18.1875 7.43672 17.4312 8.16328L16.5063 9.05332L16.4875 7.43672L16.4688 5.81406L16.2937 5.66875C16.075 5.48711 15.925 5.48711 15.7062 5.66875Z" fill="black"/>
</g>
<defs>
<clipPath id="clip0_5316_35303">
<rect width="32" height="31" fill="white" transform="translate(0 0.5)"/>
</clipPath>
</defs>
</svg>
