<svg width="28" height="30" viewBox="0 0 28 30" fill="none" xmlns="http://www.w3.org/2000/svg">
<path d="M13.9618 0.605626C13.8971 0.668006 13.8206 0.815451 13.8029 0.934541C13.7794 1.05363 13.6675 1.33151 13.5557 1.55267C13.3732 1.90427 13.3438 2.00635 13.3438 2.36929C13.3438 2.73223 13.3673 2.82296 13.5616 3.18023C13.8382 3.69062 13.8382 3.88343 13.5616 4.39949C13.3673 4.74541 13.3438 4.84182 13.3438 5.20476C13.3438 5.5677 13.3732 5.66978 13.5557 6.02138C13.6675 6.24254 13.7794 6.52042 13.8029 6.63951C13.85 6.90037 14.0266 7.07617 14.2326 7.07617C14.7212 7.0705 14.8036 6.45804 14.4151 5.78887C14.162 5.35788 14.1679 5.11403 14.4445 4.60364C14.6388 4.24637 14.6623 4.15564 14.6623 3.78702C14.6623 3.41841 14.6388 3.32768 14.4445 2.97041C14.1679 2.46002 14.162 2.21617 14.4151 1.78518C14.6152 1.43925 14.7153 0.985579 14.6388 0.781425C14.5328 0.497878 14.1855 0.407143 13.9618 0.605626Z" fill="black"/>
<path d="M10.2504 1.97232C9.92076 2.10275 9.92076 2.60747 10.2563 3.21993C10.374 3.43543 10.4682 3.69062 10.4682 3.78702C10.4682 3.88343 10.3681 4.14429 10.2504 4.36546C10.0444 4.73974 10.0267 4.80779 10.0267 5.22744C10.0267 5.64709 10.0503 5.72082 10.2504 6.08943C10.3681 6.31059 10.4682 6.56012 10.4682 6.64518C10.4682 6.83799 10.7096 7.07617 10.9097 7.07617C10.998 7.07617 11.1275 7.01379 11.2158 6.92873C11.3512 6.7983 11.363 6.75293 11.3335 6.47505C11.31 6.2709 11.2276 6.03839 11.0922 5.79454C10.8214 5.32385 10.8214 5.13671 11.104 4.62632C11.2982 4.25771 11.3218 4.17832 11.3218 3.78702C11.3218 3.39573 11.2982 3.31634 11.104 2.94773C10.9803 2.72656 10.8803 2.48271 10.8803 2.40331C10.8803 2.18782 10.8214 2.08574 10.6389 2.00068C10.4506 1.90427 10.4329 1.90427 10.2504 1.97232Z" fill="black"/>
<path d="M16.8251 1.98934C16.7486 2.02903 16.6544 2.13111 16.625 2.21617C16.5426 2.43734 16.6662 2.95907 16.8663 3.24261C17.0959 3.56586 17.0959 4.00252 16.8722 4.32576C16.5132 4.84182 16.5073 5.48831 16.8487 6.07809C16.9664 6.28224 17.0606 6.52042 17.0606 6.6225C17.0606 6.83799 17.2902 7.07617 17.5021 7.07617C17.5845 7.07617 17.7199 7.01379 17.7964 6.9344C18.0378 6.70756 17.9848 6.24254 17.661 5.7435C17.4138 5.36922 17.4197 5.11403 17.6846 4.66035C17.9024 4.29174 17.9142 4.2407 17.9142 3.78703C17.9142 3.33335 17.9024 3.28231 17.6964 2.92504C17.5727 2.72089 17.4727 2.47137 17.4727 2.38063C17.4727 2.05172 17.1195 1.84189 16.8251 1.98934Z" fill="black"/>
<path d="M12.8531 7.73492C9.38004 7.93908 6.70166 8.55721 4.43533 9.67439C2.38681 10.6838 1.11531 11.9371 0.626725 13.4285C0.508993 13.8028 0.491334 13.9559 0.503107 14.7329C0.526653 16.9899 1.2507 19.3887 2.49276 21.2828C3.59355 22.9727 5.18292 24.5039 6.89003 25.5247L7.32563 25.7912L7.39627 26.3356C7.57875 27.8724 8.5206 28.6494 10.8458 29.1938C11.8936 29.4376 12.5588 29.5 14.001 29.5C15.7493 29.5 16.6794 29.3752 18.0039 28.9613C19.7227 28.4168 20.4409 27.6966 20.6057 26.3356L20.6764 25.7912L21.112 25.5247C22.8191 24.5039 24.4084 22.9671 25.5092 21.2828C26.7454 19.3944 27.4812 16.9729 27.4989 14.7329C27.5107 13.7801 27.4341 13.4342 27.075 12.7197C26.3392 11.2849 24.6557 10.026 22.2304 9.09595C21.4946 8.8124 21.3121 8.80106 21.1532 9.02223C21.0237 9.19803 21.0472 9.41919 21.2003 9.5553C21.2709 9.61768 21.5888 9.76512 21.9125 9.88421C23.29 10.4059 24.4379 11.0694 25.262 11.835C26.663 13.1337 26.9809 14.3869 26.2686 15.8047C26.0331 16.2697 25.9154 16.4228 25.3974 16.9219C23.5667 18.6969 20.2878 19.8651 16.1319 20.2337C15.2607 20.3131 12.8237 20.3074 11.8818 20.2337C10.8929 20.1543 9.46245 19.9331 8.53238 19.7233C7.72003 19.5418 7.53755 19.5475 7.41393 19.7743C7.31386 19.9501 7.3374 20.1032 7.48457 20.2564C7.58464 20.3641 7.77301 20.4322 8.37933 20.5626C10.4867 21.0333 12.6353 21.2148 15.1077 21.1354C19.5873 20.9879 23.7609 19.6496 25.8683 17.6874C26.1332 17.4379 26.245 17.3642 26.245 17.4379C26.245 17.6307 25.7211 19.0314 25.4386 19.6155C23.6137 23.3357 19.9582 25.9273 15.7316 26.5057C14.8016 26.6305 13.2004 26.6305 12.2703 26.5057C10.9518 26.3243 9.67437 25.95 8.49706 25.3942C5.88931 24.1636 3.79369 22.1221 2.5634 19.6155C2.27496 19.0258 1.75694 17.6307 1.75694 17.4322C1.75694 17.3585 1.88645 17.4436 2.2161 17.7498C2.4751 17.9823 2.96958 18.3623 3.32277 18.5834C3.93497 18.9747 5.12406 19.5702 5.59498 19.729C5.88931 19.8254 6.113 19.7516 6.20718 19.5191C6.34258 19.2072 6.23662 19.1165 5.13583 18.5891C3.87611 17.9823 3.3522 17.6364 2.6105 16.9162C1.92765 16.264 1.57446 15.6969 1.4273 14.9994C1.14474 13.7291 1.85702 12.3851 3.39341 11.2849C6.75463 8.88612 13.065 7.94475 18.7102 9.00521C19.4578 9.14132 19.5815 9.15266 19.7168 9.08461C19.8876 9.00521 19.9464 8.89747 19.9464 8.69898C19.9464 8.48349 19.7463 8.34171 19.2871 8.23964C18.6749 8.10921 17.1503 7.88804 16.3556 7.81432C15.6198 7.75194 13.4182 7.7009 12.8531 7.73492ZM9.18579 26.6192C11.7523 27.5776 14.8663 27.7193 17.5447 27.0161C18.2687 26.8233 19.1576 26.5171 19.5344 26.3299L19.7286 26.2335L19.6933 26.466C19.6227 26.9934 19.2047 27.5322 18.669 27.7987C17.5859 28.3204 15.6904 28.6834 14.001 28.6834C12.3115 28.6834 10.4161 28.3204 9.33295 27.7987C8.79727 27.5322 8.37933 26.9934 8.30869 26.466L8.27337 26.2335L8.46762 26.3299C8.5677 26.381 8.89734 26.5114 9.18579 26.6192Z" fill="black"/>
<path d="M11.8835 9.52091C11.03 9.59463 9.76436 9.78744 8.88137 9.98026C7.56279 10.2695 5.86157 10.8366 5.57901 11.0804C5.33767 11.2902 5.53781 11.7836 5.86746 11.7836C5.93221 11.7836 6.2854 11.6702 6.6386 11.5284C7.83357 11.0577 9.48769 10.6664 11.236 10.4396C12.3544 10.2978 15.6804 10.2978 16.7988 10.4396C20.1836 10.8763 22.8502 11.88 24.1982 13.2127C24.8163 13.8252 24.987 14.4206 24.7103 14.9877C24.6397 15.1295 24.5691 15.2429 24.5455 15.2429C24.522 15.2429 24.4572 15.1635 24.3925 15.0614C24.051 14.5 22.9385 13.5926 21.9495 13.0709C20.6074 12.3621 18.5824 11.795 16.4456 11.5171C15.3684 11.381 12.637 11.381 11.5598 11.5171C8.22208 11.9481 5.63199 12.9632 4.18979 14.4093C3.93078 14.6701 3.67177 14.9593 3.6129 15.0614C3.54815 15.1635 3.4834 15.2429 3.45985 15.2429C3.43631 15.2429 3.36567 15.1295 3.29503 14.9877C2.96538 14.3185 3.27737 13.6153 4.24865 12.8157C4.53121 12.5832 4.59596 12.4244 4.49589 12.1919C4.40759 11.9991 4.21333 11.9197 3.9661 11.9764C3.88957 11.9934 3.58936 12.2373 3.30092 12.5095C2.88886 12.9008 2.72403 13.1049 2.54744 13.4565C2.02353 14.4773 2.28254 15.447 3.34212 16.4224C6.16178 19.0311 13.2315 20.1766 18.9474 18.9517C22.497 18.1861 25.0694 16.6947 25.6286 15.0671C25.7817 14.6248 25.7346 14.0066 25.505 13.5416C24.5279 11.5454 20.6545 9.90086 16.0335 9.51524C15.2153 9.45286 12.7018 9.45286 11.8835 9.52091ZM15.5626 12.2997C18.3116 12.5265 20.5956 13.19 22.2439 14.2448C23.1504 14.8289 24.0157 15.7986 23.8215 16.0198C23.5625 16.3204 22.0437 17.12 21.0607 17.4772C18.1468 18.5207 14.1734 18.861 10.665 18.3619C7.99839 17.9876 5.57901 17.1256 4.2722 16.0822L4.11326 15.9518L4.24276 15.6966C4.5783 15.0444 5.70852 14.1711 6.9447 13.5983C9.19925 12.5605 12.5899 12.0501 15.5626 12.2997Z" fill="black"/>
<path d="M16.2979 13.2932C15.1618 13.5824 14.8674 14.6655 15.7681 15.2497C16.0918 15.4595 16.3862 15.5332 16.8865 15.5332C17.7636 15.5332 18.3994 15.0965 18.4641 14.4557C18.5171 13.9227 18.0933 13.469 17.381 13.2875C16.963 13.1854 16.7217 13.1854 16.2979 13.2932ZM17.4163 14.2062C17.5164 14.2572 17.5929 14.331 17.5929 14.3707C17.5929 14.4897 17.3751 14.6259 17.1161 14.6655C16.4921 14.7733 15.8328 14.433 16.2508 14.2175C16.6099 14.0304 17.1043 14.0247 17.4163 14.2062Z" fill="black"/>
<path d="M10.2022 13.4576C9.91373 13.537 9.19557 13.7015 8.6128 13.8206C7.48258 14.0531 7.20002 14.1438 6.89392 14.3707C6.49364 14.6656 6.32293 15.3234 6.54073 15.726C6.97045 16.52 8.72464 17.0133 10.4906 16.8375C11.8975 16.7014 12.7393 16.2988 13.1101 15.5729C13.2102 15.3858 13.2926 15.1816 13.2926 15.1306C13.2926 15.0739 13.4045 14.9604 13.5399 14.8697C14.052 14.5295 14.2639 14.0304 13.999 13.7979C13.7989 13.6221 13.534 13.6618 13.3162 13.9L13.1337 14.1098L12.9747 13.917C12.8864 13.7979 12.6569 13.6448 12.4273 13.5314C12.0564 13.3556 11.9799 13.3442 11.3795 13.3272C10.8379 13.3159 10.6495 13.3386 10.2022 13.4576ZM12.0976 14.3083C12.7628 14.6882 12.392 15.5219 11.4266 15.8111C10.5613 16.0663 9.41926 16.089 8.41854 15.8678C7.64152 15.692 7.25889 15.4481 7.33542 15.1759C7.38251 15.0058 7.76513 14.864 8.71287 14.6826C9.17791 14.5918 9.83132 14.4387 10.1727 14.3423C10.7025 14.1892 10.8674 14.1722 11.35 14.1835C11.7739 14.1949 11.9564 14.2232 12.0976 14.3083Z" fill="black"/>
<path d="M20.256 14.3353C19.426 14.4487 18.8608 15.0612 19.0021 15.6793C19.2376 16.6831 21.1213 16.9893 21.9101 16.1443C22.3457 15.685 22.3221 15.1859 21.8571 14.755C21.4804 14.4034 20.8858 14.2502 20.256 14.3353ZM21.1331 15.2767C21.3509 15.3844 21.3862 15.4581 21.2685 15.5829C20.9741 15.9005 19.8851 15.8097 19.8851 15.4695C19.8851 15.1859 20.6916 15.0612 21.1331 15.2767Z" fill="black"/>
<path d="M14.2912 15.7995C13.7026 16.032 13.4023 16.3836 13.4023 16.86C13.4023 17.2853 13.679 17.6312 14.2088 17.8637C14.4443 17.9658 14.6091 17.9941 15.0035 17.9941C15.7629 17.9941 16.2926 17.7389 16.5281 17.2626C16.6753 16.9734 16.6812 16.7862 16.5634 16.5027C16.4398 16.2191 16.2632 16.0547 15.9159 15.8789C15.5156 15.6804 14.7033 15.6407 14.2912 15.7995ZM15.5333 16.6501C15.7805 16.7692 15.7923 16.8656 15.5745 17.0244C15.239 17.2626 14.2971 17.1378 14.2971 16.86C14.2971 16.5877 15.1212 16.446 15.5333 16.6501Z" fill="black"/>
</svg>
