<svg width="32" height="32" viewBox="0 0 32 32" fill="none" xmlns="http://www.w3.org/2000/svg">
<path d="M0.675504 0.673828C0.396988 0.952343 0.451481 1.31562 0.802653 1.49727C0.94191 1.56992 1.22648 1.58809 2.17707 1.58809H3.37589L4.64738 4.13711C5.39816 5.64473 5.97941 6.73457 6.06418 6.80117C6.24582 6.94648 6.50011 6.94648 6.68175 6.80117C6.76652 6.73457 7.34777 5.64473 8.09855 4.13711L9.37004 1.58809H11.1864H13.0028L14.2743 4.13711C15.0251 5.64473 15.6064 6.73457 15.6911 6.80117C15.8728 6.94648 16.1271 6.94648 16.3087 6.80117C16.3935 6.73457 16.9747 5.64473 17.7255 4.13711L18.997 1.58809H20.8134H22.6298L23.9013 4.13711C24.6521 5.64473 25.2333 6.73457 25.3181 6.80117C25.4997 6.94648 25.754 6.94648 25.9357 6.80117C26.0204 6.73457 26.6017 5.64473 27.3525 4.13711L28.6239 1.58809H29.8228C30.7734 1.58809 31.0579 1.56992 31.1972 1.49727C31.5484 1.31562 31.6028 0.952343 31.3243 0.673828L31.1487 0.498242H15.9999H0.85109L0.675504 0.673828ZM7.30539 3.35605C6.82101 4.33086 6.40929 5.14219 6.39718 5.1543C6.37902 5.17246 4.61711 1.67891 4.61711 1.61836C4.61711 1.60019 5.42238 1.58809 6.40324 1.58809H8.18937L7.30539 3.35605ZM17.7558 1.61836C17.7558 1.67891 16.0302 5.0998 15.9999 5.0998C15.9696 5.0998 14.2441 1.67891 14.2441 1.61836C14.2441 1.60019 15.0372 1.58809 15.9999 1.58809C16.9687 1.58809 17.7558 1.60019 17.7558 1.61836ZM27.3827 1.61836C27.3827 1.67891 25.6208 5.17246 25.6027 5.1543C25.5905 5.14219 25.1788 4.33086 24.6945 3.35605L23.8105 1.58809H25.5966C26.5775 1.58809 27.3827 1.60019 27.3827 1.61836Z" fill="black"/>
<path d="M3.83028 9.67676C3.29747 9.90684 3.20665 10.1187 3.16427 11.251C3.12794 12.2561 3.14611 12.2076 2.59513 12.8918C2.48009 13.0311 2.32267 13.3035 2.25001 13.4973C2.1047 13.8484 2.1047 13.8545 2.08653 17.3057L2.06837 20.7629L1.67482 20.7992C1.16622 20.8477 0.887706 20.9869 0.693956 21.2836C0.53048 21.5258 0.53048 21.5379 0.512316 22.8336C0.494152 24.2867 0.536535 24.5229 0.869542 24.8014L1.04513 24.9527V28.0467V31.1467L1.22071 31.3223C1.31759 31.4191 1.4629 31.4979 1.53556 31.4979C1.60821 31.4979 2.51036 31.1406 3.53361 30.7047L5.39239 29.9115L10.6963 30.7047L16.0063 31.5039L21.3102 30.7107L26.6201 29.9115L28.4729 30.7047C29.4961 31.1406 30.3922 31.4979 30.4649 31.4979C30.5375 31.4979 30.6828 31.4191 30.7797 31.3223L30.9553 31.1467V28.0467V24.9527L31.1309 24.8014C31.4639 24.5229 31.5063 24.2867 31.4881 22.8336C31.4699 21.5379 31.4699 21.5258 31.3065 21.2836C31.0158 20.8477 30.8826 20.8113 29.2479 20.7932L27.8068 20.7689L27.5707 20.5025C27.2498 20.1393 27.2014 19.885 27.2014 18.6377V17.5721L27.5647 17.3904C28.1943 17.0756 28.6303 16.5852 29.0602 15.7254C29.4174 15.0109 29.8594 13.4367 29.8654 12.8676C29.8654 12.2258 29.9684 12.2439 26.6625 12.2439H23.8834L23.6957 12.4014C23.4656 12.5951 23.4535 12.801 23.6231 13.6062C24.059 15.6406 24.8643 17.0029 25.8936 17.4268L26.1721 17.5418V18.6377C26.1721 19.9152 26.1115 20.1937 25.7664 20.551L25.5424 20.7811H24.507H23.4717L23.3688 20.1453C23.1811 19.0312 22.8178 18.123 22.1881 17.1785C21.068 15.4893 19.2092 14.2965 17.2111 13.9695C16.8963 13.9211 16.6178 13.8787 16.5996 13.8787C16.5754 13.8787 16.5451 13.6971 16.533 13.4791C16.5088 13.1279 16.4846 13.0553 16.3393 12.9342C16.2484 12.8555 16.0971 12.7889 16.0002 12.7889C15.9033 12.7889 15.752 12.8555 15.6611 12.9342C15.5158 13.0553 15.4916 13.1279 15.4674 13.4791C15.4553 13.6971 15.425 13.8787 15.4008 13.8787C15.3826 13.8787 15.1041 13.9211 14.7893 13.9695C12.7791 14.2965 10.9324 15.4893 9.80021 17.1967C9.15236 18.1715 8.78907 19.116 8.60743 20.2967L8.53478 20.7811H8.00197H7.46915L7.45099 17.2814C7.43282 13.8242 7.43282 13.7818 7.29962 13.4549C7.22091 13.2732 7.03927 12.9705 6.8879 12.7889C6.42775 12.2379 6.41564 12.1955 6.37325 11.1783C6.34298 10.2883 6.33693 10.258 6.16739 10.04C5.88888 9.6707 5.61642 9.57988 4.76876 9.58594C4.26017 9.58594 3.98165 9.61016 3.83028 9.67676ZM5.28341 11.1662C5.28341 12.1652 5.44689 12.7223 5.88888 13.243C6.26427 13.691 6.37325 13.9574 6.37325 14.466V14.908H4.76271H3.15216L3.17638 14.4357C3.20665 13.8969 3.29747 13.6729 3.67286 13.2309C4.08458 12.7525 4.20568 12.359 4.242 11.4387L4.26622 10.6697H4.77482H5.28341V11.1662ZM28.6848 13.5275C28.6606 13.6365 28.594 13.8787 28.5395 14.0604L28.4365 14.3934H26.6867H24.9369L24.834 14.0604C24.7795 13.8787 24.719 13.6365 24.7008 13.5275L24.6645 13.3338H26.6928H28.7272L28.6848 13.5275ZM17.2777 15.0594C19.3303 15.4953 21.0317 16.8818 21.8975 18.8314C22.0912 19.2674 22.3576 20.2846 22.3576 20.5752V20.7811H16.0002H9.64279V20.5752C9.64279 20.2846 9.90919 19.2674 10.1029 18.8314C11.0414 16.7123 12.991 15.2531 15.2615 14.9686C15.7701 14.902 16.7449 14.9504 17.2777 15.0594ZM27.8977 15.6406C27.6494 16.1129 27.0742 16.5428 26.6867 16.5428C26.2992 16.5428 25.724 16.1129 25.4697 15.6164L25.3789 15.4529H26.6867H27.9945L27.8977 15.6406ZM6.37325 18.3895V20.7811H4.76876H3.16427V18.3895V15.9979H4.76876H6.37325V18.3895ZM30.4104 22.9305V23.99H16.0002H1.59005V22.9305V21.8709H16.0002H30.4104V22.9305ZM29.9139 27.6047C29.9199 29.3545 29.9078 30.1053 29.8654 30.1053C29.8291 30.1053 29.2115 29.857 28.4971 29.5482L27.2014 28.9973V27.7318C27.2014 26.4725 27.2014 26.4664 27.05 26.3211C26.8502 26.1152 26.5233 26.1152 26.3235 26.3211C26.1721 26.4664 26.1721 26.4725 26.1721 27.6773V28.8822L26.0086 28.9186C25.9117 28.9367 23.8229 29.2516 21.3586 29.6209C18.8943 29.9902 16.8055 30.3051 16.7147 30.3232L16.5451 30.3596V28.4523V26.5451L16.3877 26.3574C16.1637 26.091 15.8367 26.091 15.6127 26.3574L15.4553 26.5451V28.4523V30.3596L15.2918 30.3232C15.1949 30.3051 13.1182 29.9902 10.6721 29.6209C8.22599 29.2576 6.13107 28.9428 6.02814 28.9246L5.82833 28.8883V27.6773C5.82833 26.4725 5.82833 26.4664 5.67696 26.3211C5.47716 26.1152 5.15021 26.1152 4.9504 26.3211C4.79903 26.4664 4.79903 26.4725 4.79903 27.7318V29.0033L3.50939 29.5543C2.80099 29.857 2.18946 30.1053 2.14708 30.1053C2.09259 30.1053 2.07443 29.518 2.07443 27.635C2.07443 26.2727 2.09259 25.1404 2.11681 25.1223C2.13497 25.098 8.39552 25.0859 16.0244 25.092L29.8957 25.1102L29.9139 27.6047Z" fill="black"/>
<path d="M16.8174 16.1918C16.6297 16.3008 16.551 16.434 16.5449 16.6459C16.5449 16.9244 16.7508 17.1182 17.1807 17.2393C18.1676 17.5117 19.1666 18.2928 19.6873 19.1889C19.9537 19.649 20.0687 19.752 20.3291 19.752C20.5471 19.752 20.8438 19.4492 20.8438 19.2312C20.8438 19.1404 20.759 18.9164 20.6561 18.7287C19.9779 17.5299 18.882 16.652 17.5439 16.2342C17.1262 16.101 16.9869 16.0949 16.8174 16.1918Z" fill="black"/>
</svg>
