<svg width="30" height="35" viewBox="0 0 35 35" fill="none" xmlns="http://www.w3.org/2000/svg">
<path d="M22.7521 18.9364C23.4168 16.9325 21.7763 16.0211 21.2033 16.4028C20.686 16.7219 20.7417 17.3471 21.0527 17.357C21.367 17.3669 21.223 17.2846 21.223 17.2846C21.223 17.2846 21.1411 16.7812 21.7076 16.791C22.274 16.8009 23.1515 18.1171 21.6847 19.8742C20.2178 21.6313 18.9342 20.5883 18.8229 20.4237C18.7083 20.2559 18.3318 19.7196 18.7771 18.7982C19.0128 18.5613 18.5118 18.4297 18.1025 18.8772C17.69 19.3247 17.0515 20.483 17.893 20.7199C18.1811 20.4599 18.8818 21.0851 18.3874 21.6774C17.893 22.2697 15.4438 23.3128 13.2238 20.937C11.0038 18.5613 14.2061 14.0764 15.6828 15.3202C16.1412 15.4156 15.1524 13.5006 13.3646 15.6032C12.7621 16.3238 12.2121 17.4129 12.2121 17.4129C12.2121 17.4129 11.6096 16.8569 11.829 15.7151C11.8617 15.5341 11.9174 15.3366 11.9992 15.1228C12.1826 14.6555 12.4969 14.1126 13.0012 13.494C15.172 10.8484 18.7378 10.062 21.6912 12.5496C24.6446 15.0372 24.4613 18.9496 21.5962 22.3849C21.5962 22.3849 17.1137 25.6688 13.4301 22.4638C9.71374 19.226 11.8224 15.0602 11.8224 15.0602" stroke="#D7AD45" stroke-width="0.5"/>
<path d="M13.2506 22.3887C13.2506 22.3887 9.44587 23.7147 10.6737 27.4758C11.7772 29.5751 11.5316 27.0348 12.8806 26.5906C14.2296 26.1464 14.4752 27.3639 13.4962 27.8081C12.5139 28.249 10.4282 30.4602 17.1765 34.0008H17.6579C24.403 30.4602 22.3205 28.249 21.3382 27.8081C20.3559 27.3639 20.6015 26.1497 21.9505 26.5906C23.2995 27.0315 23.0539 29.5751 24.1574 27.4758C25.3853 23.7147 21.5805 22.3887 21.5805 22.3887" stroke="#D7AD45" stroke-width="0.5" stroke-linecap="round" stroke-linejoin="round"/>
<path d="M13.2506 12.6121C13.2506 12.6121 9.44587 11.286 10.6737 7.52502C11.7772 5.4257 11.5316 7.96595 12.8806 8.41016C14.2296 8.85438 14.4752 7.6369 13.4962 7.19269C12.5139 6.75176 10.4282 4.54056 17.1765 1H17.6579C24.403 4.54056 22.3205 6.75176 21.3382 7.19269C20.3559 7.6369 20.6015 8.85109 21.9505 8.41016C23.2995 7.96924 23.0539 5.4257 24.1574 7.52502C25.3853 11.286 21.5805 12.6121 21.5805 12.6121" stroke="#D7AD45" stroke-width="0.5" stroke-linecap="round" stroke-linejoin="round"/>
<path d="M22.4453 13.3681C22.4453 13.3681 23.7649 9.54453 27.5074 10.7785C29.5964 11.8873 27.0686 11.6406 26.6266 12.9962C26.1846 14.3519 27.3961 14.5987 27.8381 13.6116C28.2769 12.6244 30.4805 10.5284 34.0004 17.3101V17.7938C30.4805 24.5722 28.2769 22.4794 27.8381 21.4923C27.3994 20.5051 26.1879 20.7519 26.6266 22.1076C27.0654 23.4633 29.5964 23.2165 27.5074 24.3254C23.7649 25.5593 22.4453 21.7358 22.4453 21.7358" stroke="#D7AD45" stroke-width="0.5" stroke-linecap="round" stroke-linejoin="round"/>
<path d="M12.5551 13.3681C12.5551 13.3681 11.2355 9.54453 7.49297 10.7785C5.40396 11.8873 7.93173 11.6406 8.37377 12.9962C8.8158 14.3519 7.6043 14.5987 7.16227 13.6116C6.72351 12.6244 4.51989 10.5284 1 17.3101V17.7938C4.51989 24.5722 6.72351 22.4794 7.16227 21.4923C7.60103 20.5051 8.81252 20.7519 8.37377 22.1076C7.93501 23.4633 5.40396 23.2165 7.49297 24.3254C11.2355 25.5593 12.5551 21.7358 12.5551 21.7358" stroke="#D7AD45" stroke-width="0.5" stroke-linecap="round" stroke-linejoin="round"/>
</svg>
