<svg width="52" height="52" viewBox="0 0 52 52" fill="none" xmlns="http://www.w3.org/2000/svg">
<rect width="52" height="52" rx="26" fill="#F7F9FB"/>
<path d="M11.7132 11.0042C11.8826 11.0035 11.8826 11.0035 12.0554 11.0027C12.294 11.0023 12.5326 11.0033 12.7712 11.0056C13.1359 11.0085 13.5002 11.0056 13.8648 11.0021C14.0969 11.0025 14.3289 11.0032 14.561 11.0042C14.6697 11.0031 14.7785 11.002 14.8905 11.0009C15.3756 11.0091 15.6678 11.0327 16.0964 11.307C16.3714 11.6647 16.4723 11.928 16.5829 12.3841C16.619 12.529 16.6551 12.6739 16.6924 12.8232C16.7276 12.9738 16.7628 13.1243 16.799 13.2794C16.8553 13.5069 16.8553 13.5069 16.9127 13.7389C17.1832 14.8451 17.1832 14.8451 17.1832 15.1747C17.302 15.1742 17.4207 15.1737 17.543 15.1732C20.4303 15.1611 23.3176 15.1521 26.2049 15.1464C27.6011 15.1436 28.9974 15.1398 30.3937 15.1335C31.6105 15.1281 32.8273 15.1245 34.0441 15.1233C34.6886 15.1226 35.333 15.1209 35.9774 15.117C36.5838 15.1133 37.1902 15.1121 37.7966 15.1129C38.0193 15.1128 38.242 15.1117 38.4647 15.1096C38.7686 15.1069 39.0723 15.1075 39.3762 15.109C39.4645 15.1074 39.5528 15.1058 39.6438 15.1042C40.0691 15.1099 40.3168 15.1676 40.6846 15.4169C40.9301 15.7211 40.9301 15.7211 41 15.9944C40.9642 16.8152 40.8196 17.5585 40.6149 18.3457C40.5814 18.4793 40.5479 18.613 40.5133 18.7507C40.403 19.1891 40.2906 19.6268 40.1781 20.0645C40.1005 20.3704 40.023 20.6763 39.9456 20.9823C39.7834 21.6219 39.6203 22.2611 39.4564 22.9002C39.2465 23.7189 39.0386 24.5384 38.8314 25.358C38.6717 25.9891 38.5111 26.62 38.3502 27.2507C38.2732 27.5528 38.1965 27.855 38.12 28.1572C38.0129 28.5792 37.9048 29.0008 37.7963 29.4224C37.7649 29.547 37.7335 29.6716 37.7012 29.8C37.5104 30.535 37.3197 31.1499 36.8316 31.7031C36.5497 31.7388 36.5497 31.7388 36.1894 31.7411C36.0532 31.7426 35.9169 31.7441 35.7766 31.7457C35.5513 31.7462 35.5513 31.7462 35.3215 31.7466C35.0851 31.7487 35.0851 31.7487 34.844 31.7508C34.4111 31.7545 33.9783 31.7566 33.5455 31.7583C33.0934 31.7605 32.6413 31.7641 32.1893 31.7676C31.3329 31.774 30.4765 31.779 29.6202 31.7836C28.6453 31.7888 27.6705 31.7955 26.6957 31.8024C24.6901 31.8165 22.6846 31.8287 20.679 31.8397C20.4732 32.4751 20.4732 32.4751 20.5283 33.1203C20.6695 33.3617 20.6695 33.3617 20.9201 33.4788C21.1279 33.492 21.3363 33.4965 21.5445 33.4968C21.743 33.4976 21.743 33.4976 21.9455 33.4984C22.0913 33.4984 22.2372 33.4983 22.3874 33.4982C22.6224 33.4989 22.8574 33.4997 23.0924 33.5004C23.3455 33.5011 23.5985 33.5015 23.8516 33.5019C24.3789 33.5027 24.9061 33.5049 25.4334 33.5075C25.6139 33.5084 25.7944 33.5092 25.9749 33.5101C26.1104 33.5108 26.1104 33.5108 26.2488 33.5114C27.4766 33.5172 28.7044 33.5217 29.9322 33.5233C30.7601 33.5245 31.588 33.5276 32.4159 33.5328C32.854 33.5355 33.2921 33.5372 33.7303 33.5365C34.2192 33.5358 34.708 33.5392 35.1969 33.543C35.342 33.5421 35.4871 33.5412 35.6367 33.5403C36.6172 33.5528 36.6172 33.5528 37.1021 33.8761C37.3295 34.183 37.396 34.3119 37.3891 34.7082C37.3907 34.7984 37.3922 34.8885 37.3938 34.9814C37.2595 35.44 37.082 35.5626 36.7111 35.801C36.257 35.8859 35.807 35.8961 35.3475 35.9034C35.2237 35.9075 35.0999 35.9115 34.9724 35.9157C34.668 35.9253 34.3637 35.9325 34.0592 35.9376C34.1253 35.9912 34.1914 36.0448 34.2595 36.1001C34.3463 36.1718 34.4331 36.2436 34.5225 36.3175C34.6515 36.4233 34.6515 36.4233 34.7831 36.5312C35.3091 37.0257 35.4758 37.548 35.5509 38.3067C35.5793 39.2494 35.5753 40.1061 35.0235 40.8551C34.2575 41.6633 33.5311 42.0258 32.4817 41.9986C31.645 41.8778 31.0099 41.4534 30.4956 40.7014C29.9612 39.8196 30.0111 38.8876 30.0813 37.85C30.2947 36.8686 30.7904 36.5642 31.5278 35.9376C29.3797 35.9376 27.2316 35.9376 25.0185 35.9376C25.4958 36.4109 25.4958 36.4109 25.9828 36.8938C26.4771 37.86 26.6426 38.7204 26.3897 39.8151C26.0669 40.7769 25.4778 41.4145 24.6719 41.871C23.6979 42.0697 22.8492 42.0358 22.0049 41.4015C21.3768 40.763 20.9825 40.1438 20.8904 39.178C20.8518 38.318 20.975 37.6146 21.4022 36.8938C21.703 36.5413 22.0215 36.2328 22.3666 35.9376C22.25 35.9356 22.1335 35.9337 22.0134 35.9317C20.9094 35.8859 19.9527 35.7948 19.1275 34.8635C18.5602 34.0696 18.3553 33.3303 18.4113 32.3092C18.4574 31.8355 18.5114 31.5616 18.7051 31.1311C19.0988 30.2185 18.5961 28.9591 18.3604 28.0379C18.3204 27.8792 18.2804 27.7205 18.2392 27.5569C18.1301 27.1248 18.0205 26.6928 17.9105 26.2609C17.7954 25.8084 17.6812 25.3557 17.5668 24.9029C17.3505 24.047 17.1335 23.1913 16.9162 22.3356C16.6688 21.361 16.4221 20.386 16.1755 19.4111C15.6685 17.4067 15.1605 15.4027 14.6519 13.399C14.5345 13.3977 14.4172 13.3964 14.2963 13.3951C13.8593 13.3896 13.4224 13.3806 12.9854 13.3706C12.7966 13.3668 12.6078 13.3639 12.419 13.3619C12.1469 13.359 11.875 13.3526 11.603 13.3456C11.4771 13.3454 11.4771 13.3454 11.3487 13.3451C10.774 13.3256 10.4744 13.1793 10.0712 12.716C9.99544 12.4428 9.99544 12.4428 10.0034 12.1696C10.0033 12.0794 10.0031 11.9893 10.003 11.8964C10.2466 10.9216 10.9697 10.9967 11.7132 11.0042ZM17.786 17.3603C17.9352 18.2059 18.0857 19.0189 18.2959 19.8425C18.3216 19.9449 18.3473 20.0472 18.3738 20.1527C18.4576 20.4856 18.542 20.8182 18.6265 21.1509C18.6853 21.3841 18.7441 21.6173 18.8029 21.8505C18.9255 22.3365 19.0485 22.8223 19.1716 23.3081C19.3297 23.9314 19.4871 24.5549 19.6443 25.1785C19.7654 25.6588 19.8867 26.139 20.0081 26.6191C20.0663 26.8491 20.1244 27.0792 20.1825 27.3093C20.2633 27.6294 20.3444 27.9494 20.4257 28.2694C20.4497 28.3647 20.4736 28.4599 20.4984 28.558C20.6228 29.0489 20.6228 29.0489 20.7995 29.5175C25.7321 29.5175 30.6647 29.5175 35.7467 29.5175C36.244 27.5369 36.7412 25.5563 37.2535 23.5157C37.4109 22.8894 37.5682 22.2631 37.7303 21.6178C37.8706 21.0584 37.8706 21.0584 38.011 20.4989C38.0737 20.249 38.1365 19.999 38.1993 19.749C38.2942 19.3714 38.389 18.9936 38.4837 18.6159C38.5119 18.5037 38.5401 18.3916 38.5692 18.2761C38.7022 17.8249 38.7022 17.8249 38.7603 17.3603C31.8388 17.3603 24.9172 17.3603 17.786 17.3603ZM23.1124 38.1402C22.8122 38.5073 22.8122 38.5073 22.8412 38.9598C22.9467 39.3548 22.9467 39.3548 23.1727 39.6172C23.5599 39.8188 23.7727 39.7711 24.1747 39.6257C24.4252 39.4103 24.4252 39.4103 24.5363 39.0793C24.5276 38.5959 24.4968 38.3547 24.1973 38.0036C23.7404 37.7374 23.513 37.7972 23.1124 38.1402ZM32.0099 38.3963C31.9364 38.8961 31.9562 39.121 32.1983 39.5489C32.4953 39.808 32.4953 39.808 32.9291 39.7538C33.3667 39.6701 33.3667 39.6701 33.577 39.2159C33.6332 38.7168 33.6336 38.4867 33.3736 38.0719C33.1086 37.8292 33.1086 37.8292 32.7935 37.7817C32.3872 37.8737 32.249 38.0151 32.0099 38.3963Z" fill="black"/>
</svg>
