<svg width="52" height="52" viewBox="0 0 52 52" fill="none" xmlns="http://www.w3.org/2000/svg">
<rect width="52" height="52" rx="26" fill="#F7F9FB"/>
<path d="M25.5 18.3184V22.6196" stroke="#292D32" stroke-width="2" stroke-miterlimit="10" stroke-linecap="round"/>
<path d="M25.526 12.584C20.7727 12.584 16.9236 16.4332 16.9236 21.1865V23.899C16.9236 24.7773 16.5619 26.0948 16.1098 26.844L14.4694 29.5823C13.4619 31.2744 14.1594 33.1602 16.0194 33.7802C22.1936 35.834 28.8715 35.834 35.0456 33.7802C36.7894 33.199 37.5385 31.1582 36.5956 29.5823L34.9552 26.844C34.5031 26.0948 34.1415 24.7644 34.1415 23.899V21.1865C34.1285 16.459 30.2535 12.584 25.526 12.584Z" stroke="#292D32" stroke-width="2" stroke-miterlimit="10" stroke-linecap="round"/>
<path d="M29.8017 34.3086C29.8017 36.6723 27.8642 38.6098 25.5004 38.6098C24.325 38.6098 23.24 38.119 22.4651 37.344C21.6901 36.569 21.1992 35.484 21.1992 34.3086" stroke="#292D32" stroke-width="2" stroke-miterlimit="10"/>
</svg>
