<svg width="52" height="52" viewBox="0 0 52 52" fill="none" xmlns="http://www.w3.org/2000/svg">
<rect width="52" height="52" rx="26" fill="#F7F9FB"/>
<g clip-path="url(#clip0_6903_20968)">
<path fill-rule="evenodd" clip-rule="evenodd" d="M26.0645 25.5484C23.1688 25.5484 20.8138 23.1178 20.8138 20.129C20.8138 17.1402 23.1688 14.7097 26.0645 14.7097C28.9603 14.7097 31.3152 17.1402 31.3152 20.129C31.3152 23.1178 28.9603 25.5484 26.0645 25.5484ZM30.9975 26.4601C33.0808 24.73 34.295 21.9322 33.8487 18.8689C33.3302 15.3152 30.4659 12.4715 27.0083 12.0569C22.2368 11.4838 18.1885 15.318 18.1885 20.129C18.1885 22.6897 19.3384 24.9712 21.1315 26.4601C16.7262 28.1686 13.5101 32.1803 13.0061 37.5942C12.9325 38.3949 13.5377 39.0968 14.3174 39.0968C14.9856 39.0968 15.5553 38.5765 15.6143 37.8896C16.1407 31.843 20.6261 28.258 26.0645 28.258C31.5029 28.258 35.9883 31.843 36.5147 37.8896C36.5738 38.5765 37.1435 39.0968 37.8116 39.0968C38.5913 39.0968 39.1965 38.3949 39.123 37.5942C38.6189 32.1803 35.4029 28.1686 30.9975 26.4601Z" fill="#2B2B2B"/>
</g>
<defs>
<clipPath id="clip0_6903_20968">
<rect width="27" height="28" fill="white" transform="translate(13 12)"/>
</clipPath>
</defs>
</svg>
